<svg xmlns="http://www.w3.org/2000/svg" xmlns:xlink="http://www.w3.org/1999/xlink" viewBox="0 0 500 500"><defs><clipPath id="freepik--clip-path--inject-5"><path d="M208.75,340.89,168,403.81s9.18,9.18,15.85,12.52c28.62,14.31,60.77,17.81,93.15,16.39,10.19-.44,21.69-1.39,31.26-5.19,1.39-.55,19.89-9.62,19.86-9.69L294.68,349.4s-12.93,5-41.31-3.76S212.94,337.39,208.75,340.89Z" style="fill:#FB7185;stroke:#263238;stroke-linecap:round;stroke-miterlimit:10;stroke-width:0.9454538226127625px"></path></clipPath><clipPath id="freepik--clip-path-2--inject-5"><path d="M238.39,211.06l1.12,18.39s-4.12,3.75-15.38,4.12-20.64-.37-26.64,3S179.85,249,169.72,255s-30,16.89-30,24.39,0,17.26,11.64,17.64,39.39-12,44.27-15.39a10.34,10.34,0,0,1,9.38-1.5s-8.25,16.14-5.25,26.64,9,15,9.38,18-2.63,12.76-.37,16.14S230.88,357,260.9,357s34.15-5.62,35.27-10.13,1.5-7.88,2.63-10.5,14.26-40.15,14.26-40.15,18.76,30.39,25.89,39,24.94,6,27.19-3.34-11.06-31.56-20.06-45.81-13.14-29.27-25.52-36.78c-14.42-8.73-34.14-8.62-46.53-21-4.12-4.13-3.75-27.76-3.75-27.76S247.39,213.31,238.39,211.06Z" style="fill:#FB7185;stroke:#263238;stroke-linecap:round;stroke-miterlimit:10;stroke-width:0.9454538226127625px"></path></clipPath><clipPath id="freepik--clip-path-3--inject-5"><path d="M284.17,135.64c-8.26-9.38-40.9-10.13-46.91-7.88,0,0-8.63,14.26-9.38,17.64-.13.58-.27,1.29-.42,2.11,4.14-.82,25.44-5,27.81-3.61,2.18,1.24,25,34.93,34.2,48.8,5.59-5.28,15.9-17.41,16.83-19.91C307.43,169.79,292.42,145,284.17,135.64Z" style="fill:#FB7185;stroke:#263238;stroke-linecap:round;stroke-miterlimit:10;stroke-width:0.9454538226127625px"></path></clipPath><clipPath id="freepik--clip-path-4--inject-5"><path d="M171.6,275.22c2-5.25,6.13-17.47,10.23-29.71-12.71,1.41-17.79-5.59-19.7-9.89-7.49,10.48-15.28,21.21-18.67,26.47a35.51,35.51,0,0,0-4.88,26.64c.75,3.76,7.88,11.26,14.63,9.76S167.1,286.86,171.6,275.22Z" style="fill:#FB7185;stroke:#263238;stroke-linecap:round;stroke-miterlimit:10;stroke-width:0.9454538226127625px"></path></clipPath><clipPath id="freepik--clip-path-5--inject-5"><path d="M354,314.31s-7.53-5-16.56-11.15c-1.07,5.12-4.19,12.16-12.88,17.28,2,2.67,3.6,4.85,4.47,5.94,3.6,4.51,15.52,22.6,22.72,23.5s13.51-3.6,15.76-12.15S361.21,318.36,354,314.31Z" style="fill:#FB7185;stroke:#263238;stroke-linecap:round;stroke-miterlimit:10;stroke-width:0.9454538226127625px"></path></clipPath></defs><g id="freepik--background-simple--inject-5"><path d="M324.88,57.79s-69.44-20.45-138,20.91S83.32,197.19,53.32,259.07,40,381.58,91.92,407s87.71-17.59,160.89-23.2,92.79,3.51,153.76-39.33S479.14,207,431.71,139.68,324.88,57.79,324.88,57.79Z" style="fill:#FB7185"></path><path d="M324.88,57.79s-69.44-20.45-138,20.91S83.32,197.19,53.32,259.07,40,381.58,91.92,407s87.71-17.59,160.89-23.2,92.79,3.51,153.76-39.33S479.14,207,431.71,139.68,324.88,57.79,324.88,57.79Z" style="fill:#fff;opacity:0.7000000000000001"></path></g><g id="freepik--Window--inject-5"><path d="M429,86.38H239.89a2.43,2.43,0,0,0-2.61,2.19V367.81a2.43,2.43,0,0,0,2.61,2.19H429a2.43,2.43,0,0,0,2.61-2.19V88.57A2.43,2.43,0,0,0,429,86.38ZM276.62,365.62H242.5V315.15h34.12Zm0-54.85H242.5V243.06h34.12Zm0-72.1H242.5V163.72h34.12Zm0-79.34H242.5V90.76h34.12Zm5.22-68.57h37.55v68.57H281.84Zm0,73h37.55v74.95H281.84Zm0,79.34h37.55v67.71H281.84Zm0,72.09h37.55v50.47H281.84Zm102,50.47H349.46V315.15h34.38Zm0-54.85H349.46V243.06h34.38Zm0-72.1H349.46V163.72h34.38Zm0-79.34H349.46V90.76h34.38Zm42.51,206.29H389.06V315.15h37.29Zm0-54.85H389.06V243.06h37.29Zm0-72.1H389.06V163.72h37.29Zm0-79.34H389.06V90.76h37.29ZM334.22,86.76V369.25" style="fill:none;stroke:#263238;stroke-linecap:round;stroke-linejoin:round;stroke-width:0.9454538226127625px"></path></g><g id="freepik--Picture--inject-5"><rect x="84.98" y="198.43" width="81.8" height="93.55" style="fill:none;stroke:#263238;stroke-miterlimit:10;stroke-width:0.9454538226127625px"></rect><rect x="92.54" y="207.08" width="66.67" height="76.25" style="fill:none;stroke:#263238;stroke-miterlimit:10;stroke-width:0.9454538226127625px"></rect></g><g id="freepik--Plants--inject-5"><path d="M421.4,233.43s0-6-8.42-14.44-13.84-13.24-13.84-13.24-4.22,13.84,3.61,22.26a147.55,147.55,0,0,0,18.65,16.25Z" style="fill:#FB7185"></path><path d="M409.18,271s0-6-8.43-14.44-13.84-13.24-13.84-13.24-4.21,13.84,3.61,22.27a147.71,147.71,0,0,0,18.66,16.24Z" style="fill:#FB7185"></path><path d="M420.87,243.68s.64-6,9.91-13.47,15.16-11.71,15.16-11.71,2.73,14.21-5.94,21.76a147.33,147.33,0,0,1-20.27,14.19Z" style="fill:#FB7185"></path><path d="M406.1,288.06s1.26-5.88,11.27-12.35,16.3-10,16.3-10,1.22,14.42-8.19,21a148.19,148.19,0,0,1-21.65,12Z" style="fill:#FB7185"></path><path d="M408.88,336.46s0-6,8.42-14.45,13.85-13.24,13.85-13.24,4.21,13.84-3.62,22.27a148.48,148.48,0,0,1-18.65,16.25Z" style="fill:#FB7185"></path><path d="M408.74,348.27s.85-6-6.29-15.5-11.82-15.07-11.82-15.07-6.13,13.1.41,22.56A148.13,148.13,0,0,0,407.2,359Z" style="fill:#FB7185"></path><path d="M400.43,383.27s0-6,8.43-14.44,13.84-13.24,13.84-13.24,4.21,13.84-3.61,22.27a149,149,0,0,1-18.66,16.25Z" style="fill:#FB7185"></path><path d="M406.06,415s-1.53-5.82,4.49-16.1,10-16.32,10-16.32,7.58,12.33,2.14,22.46a147.66,147.66,0,0,1-13.93,20.44Z" style="fill:#FB7185"></path><path d="M422.17,231.89a174.28,174.28,0,0,1-2.31,18.68c-3.33,17.21-11.66,28.31-15,43.85S411.1,330,408.54,350s-10.33,31.06-8.11,44.38,14.22,50.15,14.22,50.15" style="fill:none;stroke:#263238;stroke-linecap:round;stroke-linejoin:round;stroke-width:0.9454538226127625px"></path><line x1="420.79" y1="247.68" x2="429.87" y2="240.71" style="fill:none;stroke:#263238;stroke-linecap:round;stroke-linejoin:round;stroke-width:0.9454538226127625px"></line><line x1="421.21" y1="239.65" x2="417.41" y2="232.9" style="fill:none;stroke:#263238;stroke-linecap:round;stroke-linejoin:round;stroke-width:0.9454538226127625px"></line><path d="M405.38,293.71s7.6-5.7,15.41-11.4" style="fill:none;stroke:#263238;stroke-linecap:round;stroke-linejoin:round;stroke-width:0.9454538226127625px"></path><path d="M409.18,281.84s-6.34-12.41-13.52-20.65" style="fill:none;stroke:#263238;stroke-linecap:round;stroke-linejoin:round;stroke-width:0.9454538226127625px"></path><path d="M409.18,345a93.83,93.83,0,0,1,16.26-21.75" style="fill:none;stroke:#263238;stroke-linecap:round;stroke-linejoin:round;stroke-width:0.9454538226127625px"></path><path d="M407.7,353.46a105.72,105.72,0,0,0-8.24-15.62c-4.43-6.55-5.06-7.39-5.06-7.39" style="fill:none;stroke:#263238;stroke-linecap:round;stroke-linejoin:round;stroke-width:0.9454538226127625px"></path><path d="M400.43,394.33a101.26,101.26,0,0,1,6.85-13.84,88.58,88.58,0,0,1,8.87-11.61" style="fill:none;stroke:#263238;stroke-linecap:round;stroke-linejoin:round;stroke-width:0.9454538226127625px"></path><path d="M408.8,425.49s-.89-7.21,2.28-13.33,6.75-14.15,8.23-17.31" style="fill:none;stroke:#263238;stroke-linecap:round;stroke-linejoin:round;stroke-width:0.9454538226127625px"></path><path d="M352.65,313.82s-.65-3.77,3.72-10,7.24-9.8,7.24-9.8,4.14,8.22.15,14.35a94.72,94.72,0,0,1-9.93,12.22Z" style="fill:#FB7185"></path><path d="M364.4,336.06s-.66-3.77,3.71-10,7.24-9.8,7.24-9.8,4.15,8.22.16,14.35a94.37,94.37,0,0,1-9.94,12.22Z" style="fill:#FB7185"></path><path d="M354.1,320.19s-1.05-3.68-7.68-7.37-10.78-5.69-10.78-5.69-.16,9.2,6.09,13A94.52,94.52,0,0,0,356,326.82Z" style="fill:#FB7185"></path><path d="M368.18,346.42s-1.43-3.55-8.41-6.52-11.32-4.53-11.32-4.53.8,9.17,7.42,12.29a95.12,95.12,0,0,0,14.88,5.16Z" style="fill:#FB7185"></path><path d="M371.69,377.07s-.66-3.77-6.85-8.14-10.12-6.8-10.12-6.8-1.14,9.14,4.68,13.57a94.43,94.43,0,0,0,13.46,8.16Z" style="fill:#FB7185"></path><path d="M373.06,384.46s-1.18-3.64,2.26-10.4,5.77-10.73,5.77-10.73,5.27,7.55,2.2,14.19a94.61,94.61,0,0,1-8.1,13.5Z" style="fill:#FB7185"></path><path d="M383.63,414.9s.44-3.8,6.38-8.52,9.71-7.36,9.71-7.36,1.66,9.05-3.9,13.81a94.39,94.39,0,0,1-13,8.92Z" style="fill:#FB7185"></path><path d="M382.07,405.51s-.66-3.77-6.85-8.14-10.12-6.8-10.12-6.8-1.14,9.14,4.68,13.57a94.43,94.43,0,0,0,13.46,8.16Z" style="fill:#FB7185"></path><path d="M382,426s.32-3.81-4.57-9.61-8.06-9.14-8.06-9.14-3.42,8.55,1.09,14.32a93.69,93.69,0,0,0,10.95,11.3Z" style="fill:#FB7185"></path><path d="M352,312.94a109.74,109.74,0,0,0,3.48,11.47c4,10.42,10.38,16.48,14.16,25.87s-.05,23,3.72,35.21,9.85,18.36,9.91,27-3.09,31.84-3.09,31.84" style="fill:none;stroke:#263238;stroke-linecap:round;stroke-linejoin:round;stroke-width:0.9454538226127625px"></path><line x1="354.58" y1="322.69" x2="348.13" y2="319.31" style="fill:none;stroke:#263238;stroke-linecap:round;stroke-linejoin:round;stroke-width:0.9454538226127625px"></line><line x1="353.45" y1="317.71" x2="355.1" y2="313.06" style="fill:none;stroke:#263238;stroke-linecap:round;stroke-linejoin:round;stroke-width:0.9454538226127625px"></line><path d="M369.24,349.88s-5.38-2.75-10.9-5.47" style="fill:none;stroke:#263238;stroke-linecap:round;stroke-linejoin:round;stroke-width:0.9454538226127625px"></path><path d="M365.57,342.86a77.54,77.54,0,0,1,6.23-14.42" style="fill:none;stroke:#263238;stroke-linecap:round;stroke-linejoin:round;stroke-width:0.9454538226127625px"></path><path d="M372.43,382.47a59.84,59.84,0,0,0-12.56-11.87" style="fill:none;stroke:#263238;stroke-linecap:round;stroke-linejoin:round;stroke-width:0.9454538226127625px"></path><path d="M374.27,387.61a67.89,67.89,0,0,1,3.47-10.7c2.07-4.58,2.38-5.18,2.38-5.18" style="fill:none;stroke:#263238;stroke-linecap:round;stroke-linejoin:round;stroke-width:0.9454538226127625px"></path><path d="M383,419s4.27-5.24,6.93-7.2a38.27,38.27,0,0,0,4.51-3.92" style="fill:none;stroke:#263238;stroke-linecap:round;stroke-linejoin:round;stroke-width:0.9454538226127625px"></path><path d="M383.27,412.45a64.51,64.51,0,0,0-5.8-7.94,56.36,56.36,0,0,0-6.82-6.32" style="fill:none;stroke:#263238;stroke-linecap:round;stroke-linejoin:round;stroke-width:0.9454538226127625px"></path><path d="M381.4,432.89a16.4,16.4,0,0,0-2.87-8.11c-2.65-3.49-5.77-8.14-7-10" style="fill:none;stroke:#263238;stroke-linecap:round;stroke-linejoin:round;stroke-width:0.9454538226127625px"></path><rect x="83.27" y="161.16" width="86.24" height="6.2" style="fill:none;stroke:#263238;stroke-linecap:round;stroke-linejoin:round;stroke-width:0.9454538226127625px"></rect><rect x="86.44" y="121.99" width="15.52" height="38.96" style="fill:none;stroke:#263238;stroke-linecap:round;stroke-linejoin:round;stroke-width:0.9454538226127625px"></rect><path d="M148.52,134.54s-7.93-15.52-8.59-19.49,2-2.64,4.29,1.65,2,6.61,2,6.61-8.59-22.79-4.3-26.42,7.27,13.54,7.27,13.54,0-21.79,4.29-19.15,1,21.46,1,21.46,4.62-15.85,7.27-10.23S159.08,123,159.08,123s7.27-13.21,6.61-5.62-8.59,16.84-8.59,16.84" style="fill:#FB7185"></path><rect x="143.23" y="134.54" width="18.82" height="26.42" style="fill:none;stroke:#263238;stroke-linecap:round;stroke-linejoin:round;stroke-width:0.9454538226127625px"></rect><path d="M108.8,144.77a13.54,13.54,0,1,0,26.6,0Z" style="fill:none;stroke:#263238;stroke-linecap:round;stroke-linejoin:round;stroke-width:0.9454538226127625px"></path><polyline points="91.39 121.66 85.12 103.17 90.4 107.13 88.09 85.67 92.05 94.58 95.03 72.13 97.67 90.62 100.97 86 97.67 110.43 101.3 103.83 100.64 121.66" style="fill:#FB7185"></polyline><polyline points="89.74 121.66 87.76 113.4 90.07 117.36 89.74 101.19 93.7 115.05 93.04 79.72 96.35 105.81 98.99 98.87 98.99 112.41 102.29 108.12 98.66 121.66" style="fill:none;stroke:#263238;stroke-linecap:round;stroke-linejoin:round;stroke-width:0.9454538226127625px"></polyline><polyline points="115.5 144.44 106.58 128.59 112.2 131.23 109.88 115.05 120.45 133.21 123.09 121 123.75 136.19 129.37 130.9 128.71 140.15 135.64 128.59 132.01 144.11" style="fill:#FB7185"></polyline><polyline points="112.86 144.11 107.57 136.19 112.53 138.17 108.56 132.55 113.19 133.88 110.88 122.98 116.82 128.92 116.82 115.05 121.77 130.24 125.07 124.63 125.07 131.89 129.7 129.25 128.38 136.52 137.29 131.56 133.33 140.15 136.96 139.49 133.33 144.44" style="fill:none;stroke:#263238;stroke-linecap:round;stroke-linejoin:round;stroke-width:0.9454538226127625px"></polyline><path d="M146.54,134.2s2-3-2-10.23-10.89-15.52-9.9-16.18,6.27,2,7.59,4.62,4,10.9,4,10.9-6.28-22.79-3-23.78,6.61,21.8,6.61,21.8-.66-9.25,1.65-8.59,1.32,13.54,1.32,13.54,4.29-16.18,7.59-14.2-3,14.53-3,14.53,5.29-10.24,6.94-8.91-5.29,16.84-5.29,16.84" style="fill:none;stroke:#263238;stroke-linecap:round;stroke-linejoin:round;stroke-width:0.9454538226127625px"></path></g><g id="freepik--Character--inject-5"><path d="M182.16,444.69H319.48c.62-37.86-19-68.58-19-68.58L198.71,364.84s-7.93,10-12.52,26.29S182,443.71,182,443.71Z" style="fill:#263238;stroke:#263238;stroke-linecap:round;stroke-miterlimit:10;stroke-width:0.9454538226127625px"></path><path d="M208.75,340.89,168,403.81s9.18,9.18,15.85,12.52c28.62,14.31,60.77,17.81,93.15,16.39,10.19-.44,21.69-1.39,31.26-5.19,1.39-.55,19.89-9.62,19.86-9.69L294.68,349.4s-12.93,5-41.31-3.76S212.94,337.39,208.75,340.89Z" style="fill:#FB7185"></path><g style="clip-path:url(#freepik--clip-path--inject-5)"><g style="opacity:0.5"><path d="M314.5,397.62a1.18,1.18,0,0,0,0-.27,1.33,1.33,0,0,0-.37-.69l-.2-.17a1.45,1.45,0,0,0-.76-.23v1.36Z" style="opacity:0.2"></path><path d="M319.94,416.68a1.36,1.36,0,1,0,1.37,1.36A1.36,1.36,0,0,0,319.94,416.68Z" style="opacity:0.2"></path><path d="M319.94,403.07a1.36,1.36,0,1,0,1.37,1.36A1.36,1.36,0,0,0,319.94,403.07Z" style="opacity:0.2"></path><path d="M313.86,424.85l.6-.29a1.29,1.29,0,0,0-.19-.47,1.45,1.45,0,0,0-.37-.37,1.34,1.34,0,0,0-.76-.23v1.36Z" style="opacity:0.2"></path><path d="M313.9,410.11a1.34,1.34,0,0,0-.76-.24v2.73a1.34,1.34,0,0,0,.76-.24,1.36,1.36,0,0,0,.6-1.13A1.34,1.34,0,0,0,313.9,410.11Z" style="opacity:0.2"></path><path d="M313.14,397.62V399a1.42,1.42,0,0,0,.76-.23,1.37,1.37,0,0,0,.6-1.13Z" style="opacity:0.2"></path><path d="M313.14,425.2l.72-.35h-.72Z" style="opacity:0.2"></path><path d="M300.88,370.39a1.34,1.34,0,0,0-.23-.76,1.36,1.36,0,0,0-2.26,0,1.42,1.42,0,0,0-.23.76Z" style="opacity:0.2"></path><path d="M298.86,358c-.24-.48-.46-.94-.68-1.39a1.5,1.5,0,0,0,0,.2A1.37,1.37,0,0,0,298.86,358Z" style="opacity:0.2"></path><path d="M294.08,363.58a1.37,1.37,0,1,0-1.36,1.36A1.36,1.36,0,0,0,294.08,363.58Z" style="opacity:0.2"></path><path d="M292.72,351.33a1.36,1.36,0,0,0,1.36-1.36,1.09,1.09,0,0,0-.06-.36,23.67,23.67,0,0,1-2.64.59A1.36,1.36,0,0,0,292.72,351.33Z" style="opacity:0.2"></path><path d="M287.27,370.39a1.42,1.42,0,0,0-.23-.76,1.36,1.36,0,0,0-.86-.57l-.27,0v1.36Z" style="opacity:0.2"></path><path d="M285.91,358.14l.27,0a1.36,1.36,0,0,0,0-2.67l-.27,0Z" style="opacity:0.2"></path><path d="M313.14,396.26a1.27,1.27,0,0,0-.28,0,1.2,1.2,0,0,0-.48.2,1.73,1.73,0,0,0-.21.17,1.41,1.41,0,0,0-.37.69,2.28,2.28,0,0,0,0,.27h1.36Z" style="opacity:0.2"></path><path d="M300.49,396.66a1.73,1.73,0,0,0-.21-.17,1.2,1.2,0,0,0-.48-.2,1.27,1.27,0,0,0-.28,0,1.45,1.45,0,0,0-.76.23l-.2.17a1.33,1.33,0,0,0-.37.69,1.18,1.18,0,0,0,0,.27h2.72a1.18,1.18,0,0,0,0-.27A1.41,1.41,0,0,0,300.49,396.66Z" style="opacity:0.2"></path><path d="M299.52,385.37a1.37,1.37,0,1,0-1.36-1.37A1.36,1.36,0,0,0,299.52,385.37Z" style="opacity:0.2"></path><path d="M292.72,389.45a1.36,1.36,0,1,0,1.36,1.36A1.36,1.36,0,0,0,292.72,389.45Z" style="opacity:0.2"></path><path d="M306.33,392.17a1.36,1.36,0,1,0-1.36-1.36A1.36,1.36,0,0,0,306.33,392.17Z" style="opacity:0.2"></path><path d="M292.72,375.84a1.36,1.36,0,1,0,1.36,1.36A1.36,1.36,0,0,0,292.72,375.84Z" style="opacity:0.2"></path><path d="M305,377.2a1.36,1.36,0,1,0,1.36-1.36A1.36,1.36,0,0,0,305,377.2Z" style="opacity:0.2"></path><path d="M286.87,396.66l-.2-.17a1.45,1.45,0,0,0-.76-.23v1.36h1.36a1.18,1.18,0,0,0,0-.27A1.26,1.26,0,0,0,286.87,396.66Z" style="opacity:0.2"></path><path d="M286.18,382.67a1.24,1.24,0,0,0-.27,0v2.73a1.24,1.24,0,0,0,.27,0,1.36,1.36,0,0,0,0-2.67Z" style="opacity:0.2"></path><path d="M298.27,370.92a1.35,1.35,0,0,0,1.25.83,1.36,1.36,0,0,0,1.26-.83,1.32,1.32,0,0,0,.1-.53h-2.72A1.32,1.32,0,0,0,298.27,370.92Z" style="opacity:0.2"></path><path d="M285.91,371.75l.27,0a1.36,1.36,0,0,0,1.09-1.33h-1.36Z" style="opacity:0.2"></path><path d="M313.14,423.49a1.36,1.36,0,0,0-1.13.6,1.34,1.34,0,0,0-.23.76h1.36Z" style="opacity:0.2"></path><path d="M300.65,424.09a1.36,1.36,0,0,0-2.26,0,1.42,1.42,0,0,0-.23.76h2.72A1.34,1.34,0,0,0,300.65,424.09Z" style="opacity:0.2"></path><path d="M311.78,411.23a1.36,1.36,0,0,0,1.36,1.37v-2.73A1.36,1.36,0,0,0,311.78,411.23Z" style="opacity:0.2"></path><path d="M299.52,409.87a1.37,1.37,0,1,0,1.36,1.36A1.36,1.36,0,0,0,299.52,409.87Z" style="opacity:0.2"></path><path d="M292.72,416.68a1.36,1.36,0,1,0,1.36,1.36A1.36,1.36,0,0,0,292.72,416.68Z" style="opacity:0.2"></path><path d="M306.33,416.68a1.36,1.36,0,1,0,1.36,1.36A1.36,1.36,0,0,0,306.33,416.68Z" style="opacity:0.2"></path><path d="M292.72,403.07a1.36,1.36,0,1,0,1.36,1.36A1.36,1.36,0,0,0,292.72,403.07Z" style="opacity:0.2"></path><path d="M306.33,403.07a1.36,1.36,0,1,0,1.36,1.36A1.36,1.36,0,0,0,306.33,403.07Z" style="opacity:0.2"></path><path d="M287.27,424.85a1.42,1.42,0,0,0-.23-.76,1.36,1.36,0,0,0-.86-.57l-.27,0v1.36Z" style="opacity:0.2"></path><path d="M286.18,412.57a1.36,1.36,0,0,0,0-2.67l-.27,0v2.73Z" style="opacity:0.2"></path><path d="M311.78,397.62a1.36,1.36,0,0,0,1.36,1.36v-1.36Z" style="opacity:0.2"></path><path d="M299.52,399a1.36,1.36,0,0,0,1.36-1.36h-2.72A1.36,1.36,0,0,0,299.52,399Z" style="opacity:0.2"></path><path d="M285.91,399a1.24,1.24,0,0,0,.27,0,1.35,1.35,0,0,0,1.09-1.33h-1.36Z" style="opacity:0.2"></path><path d="M292.72,430.29a1.36,1.36,0,0,0-1.36,1.29c.88-.12,1.76-.24,2.63-.38A1.34,1.34,0,0,0,292.72,430.29Z" style="opacity:0.2"></path><path d="M312.09,425.71l1.05-.51v-.35h-1.36a1.32,1.32,0,0,0,.1.53A1.42,1.42,0,0,0,312.09,425.71Z" style="opacity:0.2"></path><path d="M298.16,424.85a1.32,1.32,0,0,0,.11.53,1.35,1.35,0,0,0,1.25.83,1.36,1.36,0,0,0,1.26-.83,1.32,1.32,0,0,0,.1-.53Z" style="opacity:0.2"></path><path d="M285.91,426.21l.27,0a1.36,1.36,0,0,0,1.09-1.33h-1.36Z" style="opacity:0.2"></path><path d="M285.91,370.39V369a1.38,1.38,0,0,0-1.13.6,1.34,1.34,0,0,0-.23.76Z" style="opacity:0.2"></path><path d="M273.66,370.39a1.34,1.34,0,0,0-.24-.76,1.36,1.36,0,0,0-1.13-.6,1.38,1.38,0,0,0-1.36,1.36Z" style="opacity:0.2"></path><path d="M285.38,355.52a1.36,1.36,0,0,0,0,2.51,1.32,1.32,0,0,0,.53.11v-2.73A1.32,1.32,0,0,0,285.38,355.52Z" style="opacity:0.2"></path><path d="M272.29,355.41a1.37,1.37,0,1,0,1.37,1.36A1.36,1.36,0,0,0,272.29,355.41Z" style="opacity:0.2"></path><path d="M266.85,363.58a1.36,1.36,0,1,0-1.36,1.36A1.36,1.36,0,0,0,266.85,363.58Z" style="opacity:0.2"></path><path d="M280.46,363.58a1.36,1.36,0,1,0-1.36,1.36A1.36,1.36,0,0,0,280.46,363.58Z" style="opacity:0.2"></path><path d="M264.13,350a1.36,1.36,0,1,0,2.3-1L265,348.7A1.34,1.34,0,0,0,264.13,350Z" style="opacity:0.2"></path><path d="M279.1,351.33a1.35,1.35,0,0,0,1.11-.58c-.74,0-1.51-.08-2.3-.14A1.34,1.34,0,0,0,279.1,351.33Z" style="opacity:0.2"></path><path d="M260,370.39a1.34,1.34,0,0,0-.23-.76,1.3,1.3,0,0,0-.37-.37,1.34,1.34,0,0,0-.76-.23v1.36Z" style="opacity:0.2"></path><path d="M258.68,358.14a1.34,1.34,0,0,0,.76-.24,1.35,1.35,0,0,0,0-2.25,1.34,1.34,0,0,0-.76-.24Z" style="opacity:0.2"></path><path d="M285.91,396.26a1.27,1.27,0,0,0-.28,0,.81.81,0,0,0-.25.08,1,1,0,0,0-.23.12,1.12,1.12,0,0,0-.2.17,1.34,1.34,0,0,0-.38.69,2.28,2.28,0,0,0,0,.27h1.36Z" style="opacity:0.2"></path><path d="M273.26,396.66a1.73,1.73,0,0,0-.21-.17,1.14,1.14,0,0,0-.48-.2,1.27,1.27,0,0,0-.28,0,1.45,1.45,0,0,0-.76.23l-.2.17a1.33,1.33,0,0,0-.37.69,1.18,1.18,0,0,0,0,.27h2.73a1.18,1.18,0,0,0,0-.27A1.41,1.41,0,0,0,273.26,396.66Z" style="opacity:0.2"></path><path d="M285.38,382.75a1.36,1.36,0,0,0,0,2.51,1.32,1.32,0,0,0,.53.11v-2.73A1.32,1.32,0,0,0,285.38,382.75Z" style="opacity:0.2"></path><path d="M272.29,385.37a1.37,1.37,0,1,0-1.36-1.37A1.37,1.37,0,0,0,272.29,385.37Z" style="opacity:0.2"></path><path d="M265.49,389.45a1.36,1.36,0,1,0,1.36,1.36A1.36,1.36,0,0,0,265.49,389.45Z" style="opacity:0.2"></path><path d="M279.1,389.45a1.36,1.36,0,1,0,1.36,1.36A1.36,1.36,0,0,0,279.1,389.45Z" style="opacity:0.2"></path><path d="M265.49,375.84a1.36,1.36,0,1,0,1.36,1.36A1.35,1.35,0,0,0,265.49,375.84Z" style="opacity:0.2"></path><path d="M279.1,375.84a1.36,1.36,0,1,0,1.36,1.36A1.36,1.36,0,0,0,279.1,375.84Z" style="opacity:0.2"></path><path d="M260,397.62a1.18,1.18,0,0,0,0-.27,1.26,1.26,0,0,0-.37-.69l-.2-.17a1.45,1.45,0,0,0-.76-.23v1.36Z" style="opacity:0.2"></path><path d="M259.44,382.88a1.34,1.34,0,0,0-.76-.24v2.73a1.34,1.34,0,0,0,.76-.24A1.36,1.36,0,0,0,260,384,1.34,1.34,0,0,0,259.44,382.88Z" style="opacity:0.2"></path><path d="M284.55,370.39a1.37,1.37,0,0,0,1.36,1.36v-1.36Z" style="opacity:0.2"></path><path d="M271,370.92a1.36,1.36,0,0,0,2.51,0,1.32,1.32,0,0,0,.11-.53h-2.73A1.32,1.32,0,0,0,271,370.92Z" style="opacity:0.2"></path><path d="M258.68,371.75a1.42,1.42,0,0,0,.76-.23,1.36,1.36,0,0,0,.49-.6,1.32,1.32,0,0,0,.11-.53h-1.36Z" style="opacity:0.2"></path><path d="M285.91,423.49a1.38,1.38,0,0,0-1.13.6,1.34,1.34,0,0,0-.23.76h1.36Z" style="opacity:0.2"></path><path d="M273.42,424.09a1.36,1.36,0,0,0-1.13-.6,1.38,1.38,0,0,0-1.36,1.36h2.73A1.34,1.34,0,0,0,273.42,424.09Z" style="opacity:0.2"></path><path d="M285.91,409.87a1.32,1.32,0,0,0-.53.11,1.36,1.36,0,0,0,0,2.51,1.32,1.32,0,0,0,.53.11Z" style="opacity:0.2"></path><path d="M272.29,409.87a1.37,1.37,0,1,0,1.37,1.36A1.36,1.36,0,0,0,272.29,409.87Z" style="opacity:0.2"></path><path d="M265.49,416.68a1.36,1.36,0,1,0,1.36,1.36A1.36,1.36,0,0,0,265.49,416.68Z" style="opacity:0.2"></path><path d="M279.1,416.68a1.36,1.36,0,1,0,1.36,1.36A1.36,1.36,0,0,0,279.1,416.68Z" style="opacity:0.2"></path><path d="M265.49,403.07a1.36,1.36,0,1,0,1.36,1.36A1.35,1.35,0,0,0,265.49,403.07Z" style="opacity:0.2"></path><path d="M279.1,403.07a1.36,1.36,0,1,0,1.36,1.36A1.36,1.36,0,0,0,279.1,403.07Z" style="opacity:0.2"></path><path d="M260,424.85a1.34,1.34,0,0,0-.23-.76,1.3,1.3,0,0,0-.37-.37,1.34,1.34,0,0,0-.76-.23v1.36Z" style="opacity:0.2"></path><path d="M259.44,410.11a1.34,1.34,0,0,0-.76-.24v2.73a1.34,1.34,0,0,0,.76-.24,1.36,1.36,0,0,0,.6-1.13A1.34,1.34,0,0,0,259.44,410.11Z" style="opacity:0.2"></path><path d="M284.55,397.62a1.35,1.35,0,0,0,.83,1.25,1.32,1.32,0,0,0,.53.11v-1.36Z" style="opacity:0.2"></path><path d="M272.29,399a1.36,1.36,0,0,0,1.37-1.36h-2.73A1.36,1.36,0,0,0,272.29,399Z" style="opacity:0.2"></path><path d="M258.68,397.62V399a1.42,1.42,0,0,0,.76-.23,1.37,1.37,0,0,0,.6-1.13Z" style="opacity:0.2"></path><path d="M266.85,431.66a1.36,1.36,0,1,0-1.49,1.35h.27A1.35,1.35,0,0,0,266.85,431.66Z" style="opacity:0.2"></path><path d="M279.1,430.29a1.36,1.36,0,0,0-.91,2.37l1.92-.09a1.37,1.37,0,0,0-1-2.28Z" style="opacity:0.2"></path><path d="M285.91,424.85h-1.36a1.32,1.32,0,0,0,.1.53,1.35,1.35,0,0,0,.73.72,1.32,1.32,0,0,0,.53.11Z" style="opacity:0.2"></path><path d="M270.93,424.85a1.32,1.32,0,0,0,.11.53,1.36,1.36,0,0,0,2.51,0,1.32,1.32,0,0,0,.11-.53Z" style="opacity:0.2"></path><path d="M258.68,426.21a1.42,1.42,0,0,0,.76-.23,1.36,1.36,0,0,0,.49-.6,1.32,1.32,0,0,0,.11-.53h-1.36Z" style="opacity:0.2"></path><path d="M243.7,343.16h1.17l-1.13-.31s0,0,0,0A1.18,1.18,0,0,0,243.7,343.16Z" style="opacity:0.2"></path><path d="M231.45,343.16h1.36a1.18,1.18,0,0,0,0-.27,1.26,1.26,0,0,0-.37-.69l-.2-.17a1.2,1.2,0,0,0-.48-.2,1.33,1.33,0,0,0-.28,0Z" style="opacity:0.2"></path><path d="M258.68,370.39V369a1.37,1.37,0,0,0-1.13.6,1.34,1.34,0,0,0-.23.76Z" style="opacity:0.2"></path><path d="M246.43,370.39a1.34,1.34,0,0,0-.24-.76,1.36,1.36,0,0,0-1.13-.6,1.38,1.38,0,0,0-1.36,1.36Z" style="opacity:0.2"></path><path d="M257.32,356.77a1.36,1.36,0,0,0,1.36,1.37v-2.73A1.36,1.36,0,0,0,257.32,356.77Z" style="opacity:0.2"></path><path d="M245.06,358.14a1.37,1.37,0,1,0-1.36-1.37A1.37,1.37,0,0,0,245.06,358.14Z" style="opacity:0.2"></path><path d="M238.26,364.94a1.36,1.36,0,1,0-1.36-1.36A1.36,1.36,0,0,0,238.26,364.94Z" style="opacity:0.2"></path><path d="M251.87,364.94a1.36,1.36,0,1,0-1.36-1.36A1.36,1.36,0,0,0,251.87,364.94Z" style="opacity:0.2"></path><path d="M238.26,351.33A1.36,1.36,0,1,0,236.9,350,1.36,1.36,0,0,0,238.26,351.33Z" style="opacity:0.2"></path><path d="M251.87,351.33a1.36,1.36,0,1,0-1.36-1.36A1.36,1.36,0,0,0,251.87,351.33Z" style="opacity:0.2"></path><path d="M232.81,370.39a1.34,1.34,0,0,0-.23-.76,1.36,1.36,0,0,0-.85-.57,1.33,1.33,0,0,0-.28,0v1.36Z" style="opacity:0.2"></path><path d="M231.73,358.11a1.37,1.37,0,0,0,0-2.67,1.33,1.33,0,0,0-.28,0v2.73A1.33,1.33,0,0,0,231.73,358.11Z" style="opacity:0.2"></path><path d="M245.06,344.52a1.37,1.37,0,0,0,1.3-.95l-1.49-.41H243.7A1.36,1.36,0,0,0,245.06,344.52Z" style="opacity:0.2"></path><path d="M231.45,344.52a1.36,1.36,0,0,0,1.36-1.36h-1.36Z" style="opacity:0.2"></path><path d="M258.68,396.26a1.45,1.45,0,0,0-.76.23l-.2.17a1.26,1.26,0,0,0-.37.69,1.18,1.18,0,0,0,0,.27h1.36Z" style="opacity:0.2"></path><path d="M246,396.66l-.2-.17a1.24,1.24,0,0,0-.49-.2,1.27,1.27,0,0,0-.28,0,1.45,1.45,0,0,0-.76.23l-.2.17a1.41,1.41,0,0,0-.37.69,1.18,1.18,0,0,0,0,.27h2.73a1.18,1.18,0,0,0,0-.27A1.41,1.41,0,0,0,246,396.66Z" style="opacity:0.2"></path><path d="M257.32,384a1.36,1.36,0,0,0,1.36,1.37v-2.73A1.36,1.36,0,0,0,257.32,384Z" style="opacity:0.2"></path><path d="M245.06,385.37A1.37,1.37,0,1,0,243.7,384,1.37,1.37,0,0,0,245.06,385.37Z" style="opacity:0.2"></path><path d="M238.26,389.45a1.36,1.36,0,1,0,1.36,1.36A1.36,1.36,0,0,0,238.26,389.45Z" style="opacity:0.2"></path><path d="M251.87,389.45a1.36,1.36,0,1,0,1.36,1.36A1.36,1.36,0,0,0,251.87,389.45Z" style="opacity:0.2"></path><path d="M238.26,375.84a1.36,1.36,0,1,0,1.36,1.36A1.36,1.36,0,0,0,238.26,375.84Z" style="opacity:0.2"></path><path d="M251.87,375.84a1.36,1.36,0,1,0,1.36,1.36A1.36,1.36,0,0,0,251.87,375.84Z" style="opacity:0.2"></path><path d="M232.41,396.66l-.2-.17a1.2,1.2,0,0,0-.48-.2,1.33,1.33,0,0,0-.28,0v1.36h1.36a1.18,1.18,0,0,0,0-.27A1.26,1.26,0,0,0,232.41,396.66Z" style="opacity:0.2"></path><path d="M231.73,382.67a1.33,1.33,0,0,0-.28,0v2.73a1.33,1.33,0,0,0,.28,0,1.37,1.37,0,0,0,0-2.67Z" style="opacity:0.2"></path><path d="M257.32,370.39a1.51,1.51,0,0,0,.1.53,1.37,1.37,0,0,0,1.26.83v-1.36Z" style="opacity:0.2"></path><path d="M243.81,370.92a1.36,1.36,0,0,0,2.51,0,1.32,1.32,0,0,0,.11-.53H243.7A1.32,1.32,0,0,0,243.81,370.92Z" style="opacity:0.2"></path><path d="M231.45,371.75a1.37,1.37,0,0,0,1.36-1.36h-1.36Z" style="opacity:0.2"></path><path d="M258.68,423.49a1.37,1.37,0,0,0-1.13.6,1.34,1.34,0,0,0-.23.76h1.36Z" style="opacity:0.2"></path><path d="M246.19,424.09a1.36,1.36,0,0,0-1.13-.6,1.38,1.38,0,0,0-1.36,1.36h2.73A1.34,1.34,0,0,0,246.19,424.09Z" style="opacity:0.2"></path><path d="M257.32,411.23a1.36,1.36,0,0,0,1.36,1.37v-2.73A1.36,1.36,0,0,0,257.32,411.23Z" style="opacity:0.2"></path><path d="M245.06,409.87a1.37,1.37,0,1,0,1.37,1.36A1.36,1.36,0,0,0,245.06,409.87Z" style="opacity:0.2"></path><path d="M238.26,416.68a1.36,1.36,0,1,0,1.36,1.36A1.36,1.36,0,0,0,238.26,416.68Z" style="opacity:0.2"></path><path d="M251.87,416.68a1.36,1.36,0,1,0,1.36,1.36A1.36,1.36,0,0,0,251.87,416.68Z" style="opacity:0.2"></path><path d="M238.26,403.07a1.36,1.36,0,1,0,1.36,1.36A1.36,1.36,0,0,0,238.26,403.07Z" style="opacity:0.2"></path><path d="M251.87,403.07a1.36,1.36,0,1,0,1.36,1.36A1.36,1.36,0,0,0,251.87,403.07Z" style="opacity:0.2"></path><path d="M232.81,424.85a1.34,1.34,0,0,0-.23-.76,1.36,1.36,0,0,0-.85-.57,1.33,1.33,0,0,0-.28,0v1.36Z" style="opacity:0.2"></path><path d="M231.73,412.57a1.37,1.37,0,0,0,0-2.67,1.33,1.33,0,0,0-.28,0v2.73A1.33,1.33,0,0,0,231.73,412.57Z" style="opacity:0.2"></path><path d="M257.32,397.62a1.36,1.36,0,0,0,1.36,1.36v-1.36Z" style="opacity:0.2"></path><path d="M245.06,399a1.36,1.36,0,0,0,1.37-1.36H243.7A1.36,1.36,0,0,0,245.06,399Z" style="opacity:0.2"></path><path d="M231.45,399a1.36,1.36,0,0,0,1.36-1.36h-1.36Z" style="opacity:0.2"></path><path d="M238.26,430.29a1.37,1.37,0,0,0-1.35,1.22l2.69.3a.77.77,0,0,0,0-.15A1.36,1.36,0,0,0,238.26,430.29Z" style="opacity:0.2"></path><path d="M253.23,431.66a1.36,1.36,0,1,0-2.25,1l1.68.09A1.35,1.35,0,0,0,253.23,431.66Z" style="opacity:0.2"></path><path d="M258.68,424.85h-1.36a1.51,1.51,0,0,0,.1.53,1.37,1.37,0,0,0,1.26.83Z" style="opacity:0.2"></path><path d="M243.7,424.85a1.32,1.32,0,0,0,.11.53,1.36,1.36,0,0,0,2.51,0,1.32,1.32,0,0,0,.11-.53Z" style="opacity:0.2"></path><path d="M231.45,426.21a1.37,1.37,0,0,0,1.36-1.36h-1.36Z" style="opacity:0.2"></path><path d="M231.45,341.8l-.27,0a.79.79,0,0,0-.26.08,1,1,0,0,0-.23.12l-.2.17a1.26,1.26,0,0,0-.37.69,1.18,1.18,0,0,0,0,.27h1.36Z" style="opacity:0.2"></path><path d="M219.17,342.89a1.33,1.33,0,0,0-.37-.69l-.2-.17a1.24,1.24,0,0,0-.49-.2l-.27,0a1.27,1.27,0,0,0-.28,0,1.24,1.24,0,0,0-.49.2l-.2.17a1.41,1.41,0,0,0-.37.69,1.18,1.18,0,0,0,0,.27h2.72A1.18,1.18,0,0,0,219.17,342.89Z" style="opacity:0.2"></path><path d="M231.45,370.39V369a1.32,1.32,0,0,0-.53.11,1.36,1.36,0,0,0-.6.49,1.34,1.34,0,0,0-.23.76Z" style="opacity:0.2"></path><path d="M219,369.63a1.36,1.36,0,0,0-2.26,0,1.34,1.34,0,0,0-.23.76h2.72A1.42,1.42,0,0,0,219,369.63Z" style="opacity:0.2"></path><path d="M230.09,356.77a1.36,1.36,0,0,0,.83,1.26,1.32,1.32,0,0,0,.53.11v-2.73a1.32,1.32,0,0,0-.53.11A1.36,1.36,0,0,0,230.09,356.77Z" style="opacity:0.2"></path><path d="M217.84,355.41a1.37,1.37,0,1,0,1.36,1.36A1.36,1.36,0,0,0,217.84,355.41Z" style="opacity:0.2"></path><path d="M211,364.94a1.36,1.36,0,1,0-1.36-1.36A1.36,1.36,0,0,0,211,364.94Z" style="opacity:0.2"></path><path d="M224.64,364.94a1.36,1.36,0,1,0-1.36-1.36A1.36,1.36,0,0,0,224.64,364.94Z" style="opacity:0.2"></path><path d="M209.67,350a1.36,1.36,0,1,0,1.36-1.36A1.36,1.36,0,0,0,209.67,350Z" style="opacity:0.2"></path><path d="M224.64,351.33a1.36,1.36,0,1,0-1.36-1.36A1.36,1.36,0,0,0,224.64,351.33Z" style="opacity:0.2"></path><path d="M205,369.26a1.31,1.31,0,0,0-.76-.23v1.36h1.36a1.34,1.34,0,0,0-.23-.76A1.3,1.3,0,0,0,205,369.26Z" style="opacity:0.2"></path><path d="M204.22,358.14a1.32,1.32,0,0,0,.76-.24,1.35,1.35,0,0,0,0-2.25,1.32,1.32,0,0,0-.76-.24Z" style="opacity:0.2"></path><path d="M230.09,343.16a1.35,1.35,0,0,0,.83,1.25,1.32,1.32,0,0,0,.53.11v-1.36Z" style="opacity:0.2"></path><path d="M217.84,344.52a1.36,1.36,0,0,0,1.36-1.36h-2.72A1.36,1.36,0,0,0,217.84,344.52Z" style="opacity:0.2"></path><path d="M231.45,396.26a1.24,1.24,0,0,0-.27,0,.79.79,0,0,0-.26.08,1,1,0,0,0-.23.12l-.2.17a1.26,1.26,0,0,0-.37.69,1.18,1.18,0,0,0,0,.27h1.36Z" style="opacity:0.2"></path><path d="M218.8,396.66l-.2-.17a1.45,1.45,0,0,0-.76-.23,1.27,1.27,0,0,0-.28,0,1.24,1.24,0,0,0-.49.2l-.2.17a1.41,1.41,0,0,0-.37.69,1.18,1.18,0,0,0,0,.27h2.72a1.18,1.18,0,0,0,0-.27A1.33,1.33,0,0,0,218.8,396.66Z" style="opacity:0.2"></path><path d="M230.92,382.75a1.36,1.36,0,0,0,0,2.51,1.32,1.32,0,0,0,.53.11v-2.73A1.32,1.32,0,0,0,230.92,382.75Z" style="opacity:0.2"></path><path d="M217.84,385.37a1.37,1.37,0,1,0-1.36-1.37A1.36,1.36,0,0,0,217.84,385.37Z" style="opacity:0.2"></path><path d="M211,392.17a1.36,1.36,0,1,0-1.36-1.36A1.36,1.36,0,0,0,211,392.17Z" style="opacity:0.2"></path><path d="M224.64,392.17a1.36,1.36,0,1,0-1.36-1.36A1.36,1.36,0,0,0,224.64,392.17Z" style="opacity:0.2"></path><path d="M211,378.56a1.36,1.36,0,1,0-1.36-1.36A1.36,1.36,0,0,0,211,378.56Z" style="opacity:0.2"></path><path d="M223.28,377.2a1.37,1.37,0,1,0,1.36-1.36A1.36,1.36,0,0,0,223.28,377.2Z" style="opacity:0.2"></path><path d="M205.58,397.62a2.28,2.28,0,0,0,0-.27,1.34,1.34,0,0,0-.38-.69,1.12,1.12,0,0,0-.2-.17,1.2,1.2,0,0,0-.48-.2,1.27,1.27,0,0,0-.28,0v1.36Z" style="opacity:0.2"></path><path d="M205,382.88a1.32,1.32,0,0,0-.76-.24v2.73a1.32,1.32,0,0,0,.76-.24,1.34,1.34,0,0,0,.6-1.13A1.32,1.32,0,0,0,205,382.88Z" style="opacity:0.2"></path><path d="M230.09,370.39a1.32,1.32,0,0,0,.11.53,1.27,1.27,0,0,0,.72.72,1.32,1.32,0,0,0,.53.11v-1.36Z" style="opacity:0.2"></path><path d="M217.84,371.75a1.36,1.36,0,0,0,1.25-.83,1.32,1.32,0,0,0,.11-.53h-2.72a1.32,1.32,0,0,0,.1.53A1.36,1.36,0,0,0,217.84,371.75Z" style="opacity:0.2"></path><path d="M204.22,371.75a1.39,1.39,0,0,0,.76-.23,1.46,1.46,0,0,0,.5-.6,1.51,1.51,0,0,0,.1-.53h-1.36Z" style="opacity:0.2"></path><path d="M231.45,423.49a1.32,1.32,0,0,0-.53.11,1.36,1.36,0,0,0-.6.49,1.34,1.34,0,0,0-.23.76h1.36Z" style="opacity:0.2"></path><path d="M219,424.09a1.36,1.36,0,0,0-2.26,0,1.34,1.34,0,0,0-.23.76h2.72A1.42,1.42,0,0,0,219,424.09Z" style="opacity:0.2"></path><path d="M231.45,409.87a1.32,1.32,0,0,0-.53.11,1.36,1.36,0,0,0,0,2.51,1.32,1.32,0,0,0,.53.11Z" style="opacity:0.2"></path><path d="M217.84,409.87a1.37,1.37,0,1,0,1.36,1.36A1.36,1.36,0,0,0,217.84,409.87Z" style="opacity:0.2"></path><path d="M211,416.68a1.36,1.36,0,1,0,1.36,1.36A1.36,1.36,0,0,0,211,416.68Z" style="opacity:0.2"></path><path d="M224.64,416.68A1.36,1.36,0,1,0,226,418,1.36,1.36,0,0,0,224.64,416.68Z" style="opacity:0.2"></path><path d="M211,403.07a1.36,1.36,0,1,0,1.36,1.36A1.36,1.36,0,0,0,211,403.07Z" style="opacity:0.2"></path><path d="M224.64,403.07a1.36,1.36,0,1,0,1.37,1.36A1.36,1.36,0,0,0,224.64,403.07Z" style="opacity:0.2"></path><path d="M205.35,424.09a1.36,1.36,0,0,0-1.13-.6v1.11l.78.25h.58A1.34,1.34,0,0,0,205.35,424.09Z" style="opacity:0.2"></path><path d="M205,410.11a1.32,1.32,0,0,0-.76-.24v2.73a1.32,1.32,0,0,0,.76-.24,1.34,1.34,0,0,0,.6-1.13A1.32,1.32,0,0,0,205,410.11Z" style="opacity:0.2"></path><path d="M230.09,397.62a1.35,1.35,0,0,0,.83,1.25,1.32,1.32,0,0,0,.53.11v-1.36Z" style="opacity:0.2"></path><path d="M217.84,399a1.36,1.36,0,0,0,1.36-1.36h-2.72A1.36,1.36,0,0,0,217.84,399Z" style="opacity:0.2"></path><path d="M204.22,397.62V399a1.39,1.39,0,0,0,.76-.23,1.35,1.35,0,0,0,.6-1.13Z" style="opacity:0.2"></path><path d="M231.45,424.85h-1.36a1.32,1.32,0,0,0,.11.53,1.3,1.3,0,0,0,.72.72,1.32,1.32,0,0,0,.53.11Z" style="opacity:0.2"></path><path d="M216.48,424.85a1.32,1.32,0,0,0,.1.53,1.36,1.36,0,0,0,2.51,0,1.32,1.32,0,0,0,.11-.53Z" style="opacity:0.2"></path><path d="M205,424.85l.56.18a1.1,1.1,0,0,0,0-.18Z" style="opacity:0.2"></path><path d="M204.22,369a1.32,1.32,0,0,0-.53.11,1.36,1.36,0,0,0-.6.49,1.42,1.42,0,0,0-.23.76h1.36Z" style="opacity:0.2"></path><path d="M192,370.39a1.42,1.42,0,0,0-.23-.76,1.37,1.37,0,0,0-1.13-.6h-.12l-.87,1.35Z" style="opacity:0.2"></path><path d="M203.69,355.52a1.36,1.36,0,0,0,0,2.51,1.32,1.32,0,0,0,.53.11v-2.73A1.32,1.32,0,0,0,203.69,355.52Z" style="opacity:0.2"></path><path d="M198.78,363.58a1.37,1.37,0,1,0-1.37,1.36A1.36,1.36,0,0,0,198.78,363.58Z" style="opacity:0.2"></path><path d="M204.22,396.26a1.24,1.24,0,0,0-.27,0,.79.79,0,0,0-.26.08,1,1,0,0,0-.23.12l-.2.17a1.26,1.26,0,0,0-.37.69,1.18,1.18,0,0,0,0,.27h1.36Z" style="opacity:0.2"></path><path d="M191.57,396.66l-.2-.17a1.45,1.45,0,0,0-.76-.23,1.27,1.27,0,0,0-.28,0,1.2,1.2,0,0,0-.48.2,1.73,1.73,0,0,0-.21.17,1.41,1.41,0,0,0-.37.69,2.28,2.28,0,0,0,0,.27H192a1.18,1.18,0,0,0,0-.27A1.33,1.33,0,0,0,191.57,396.66Z" style="opacity:0.2"></path><path d="M203.69,382.75a1.36,1.36,0,0,0,0,2.51,1.32,1.32,0,0,0,.53.11v-2.73A1.32,1.32,0,0,0,203.69,382.75Z" style="opacity:0.2"></path><path d="M190.61,385.37a1.37,1.37,0,1,0-1.36-1.37A1.36,1.36,0,0,0,190.61,385.37Z" style="opacity:0.2"></path><path d="M183.8,389.45a1.36,1.36,0,1,0,1.36,1.36A1.36,1.36,0,0,0,183.8,389.45Z" style="opacity:0.2"></path><path d="M197.41,389.45a1.36,1.36,0,1,0,1.37,1.36A1.36,1.36,0,0,0,197.41,389.45Z" style="opacity:0.2"></path><path d="M185.15,377.27l-.73,1.13A1.32,1.32,0,0,0,185.15,377.27Z" style="opacity:0.2"></path><path d="M197.41,375.84a1.36,1.36,0,1,0,1.37,1.36A1.36,1.36,0,0,0,197.41,375.84Z" style="opacity:0.2"></path><path d="M178,396.66a1.73,1.73,0,0,0-.21-.17,1.2,1.2,0,0,0-.48-.2,1.27,1.27,0,0,0-.28,0v1.36h1.36a2.28,2.28,0,0,0,0-.27A1.41,1.41,0,0,0,178,396.66Z" style="opacity:0.2"></path><path d="M202.86,370.39a1.32,1.32,0,0,0,.11.53,1.34,1.34,0,0,0,.72.72,1.32,1.32,0,0,0,.53.11v-1.36Z" style="opacity:0.2"></path><path d="M189.33,370.84s0,.05,0,.08a1.36,1.36,0,0,0,1.26.83,1.35,1.35,0,0,0,1.25-.83,1.32,1.32,0,0,0,.11-.53h-2.35Z" style="opacity:0.2"></path><path d="M203.69,423.6a1.36,1.36,0,0,0-.6.49l-.07.13,1.2.38v-1.11A1.32,1.32,0,0,0,203.69,423.6Z" style="opacity:0.2"></path><path d="M203.69,410a1.36,1.36,0,0,0,0,2.51,1.32,1.32,0,0,0,.53.11v-2.73A1.32,1.32,0,0,0,203.69,410Z" style="opacity:0.2"></path><path d="M190.61,412.6a1.37,1.37,0,1,0-1.36-1.37A1.36,1.36,0,0,0,190.61,412.6Z" style="opacity:0.2"></path><path d="M197.41,416.68a1.36,1.36,0,1,0,1.37,1.36A1.36,1.36,0,0,0,197.41,416.68Z" style="opacity:0.2"></path><path d="M182.44,404.43a1.36,1.36,0,1,0,1.36-1.36A1.36,1.36,0,0,0,182.44,404.43Z" style="opacity:0.2"></path><path d="M197.41,403.07a1.36,1.36,0,1,0,1.37,1.36A1.36,1.36,0,0,0,197.41,403.07Z" style="opacity:0.2"></path><path d="M178.35,411.23a1.36,1.36,0,0,0-1.36-1.36v1.94l.74.57A1.38,1.38,0,0,0,178.35,411.23Z" style="opacity:0.2"></path><path d="M202.86,397.62a1.35,1.35,0,0,0,.83,1.25,1.32,1.32,0,0,0,.53.11v-1.36Z" style="opacity:0.2"></path><path d="M190.61,399a1.36,1.36,0,0,0,1.36-1.36h-2.72A1.36,1.36,0,0,0,190.61,399Z" style="opacity:0.2"></path><path d="M177,399a1.36,1.36,0,0,0,1.36-1.36H177Z" style="opacity:0.2"></path><path d="M177,396.26a1.45,1.45,0,0,0-.76.23l-.2.17a1.33,1.33,0,0,0-.37.69,1.18,1.18,0,0,0,0,.27H177Z" style="opacity:0.2"></path><path d="M175.71,410.79l1.28,1v-1.94A1.37,1.37,0,0,0,175.71,410.79Z" style="opacity:0.2"></path><path d="M171.55,404.43a1.37,1.37,0,0,0-2.73,0,1.09,1.09,0,0,0,0,.26c.31.3.69.67,1.14,1.08l.2,0A1.36,1.36,0,0,0,171.55,404.43Z" style="opacity:0.2"></path><path d="M175.63,397.62A1.36,1.36,0,0,0,177,399v-1.36Z" style="opacity:0.2"></path></g></g><path d="M208.75,340.89,168,403.81s9.18,9.18,15.85,12.52c28.62,14.31,60.77,17.81,93.15,16.39,10.19-.44,21.69-1.39,31.26-5.19,1.39-.55,19.89-9.62,19.86-9.69L294.68,349.4s-12.93,5-41.31-3.76S212.94,337.39,208.75,340.89Z" style="fill:none;stroke:#263238;stroke-linecap:round;stroke-miterlimit:10;stroke-width:0.9454538226127625px"></path><line x1="222.08" y1="349.82" x2="212.48" y2="377.36" style="fill:none;stroke:#263238;stroke-linecap:round;stroke-miterlimit:10;stroke-width:0.9454538226127625px"></line><line x1="250.87" y1="357.33" x2="245.44" y2="396.97" style="fill:none;stroke:#263238;stroke-linecap:round;stroke-miterlimit:10;stroke-width:0.9454538226127625px"></line><line x1="255.88" y1="356.49" x2="257.96" y2="390.71" style="fill:none;stroke:#263238;stroke-linecap:round;stroke-miterlimit:10;stroke-width:0.9454538226127625px"></line><line x1="283.42" y1="355.66" x2="294.27" y2="402.81" style="fill:none;stroke:#263238;stroke-linecap:round;stroke-miterlimit:10;stroke-width:0.9454538226127625px"></line><path d="M238.39,211.06l1.12,18.39s-4.12,3.75-15.38,4.12-20.64-.37-26.64,3S179.85,249,169.72,255s-30,16.89-30,24.39,0,17.26,11.64,17.64,39.39-12,44.27-15.39a10.34,10.34,0,0,1,9.38-1.5s-8.25,16.14-5.25,26.64,9,15,9.38,18-2.63,12.76-.37,16.14S230.88,357,260.9,357s34.15-5.62,35.27-10.13,1.5-7.88,2.63-10.5,14.26-40.15,14.26-40.15,18.76,30.39,25.89,39,24.94,6,27.19-3.34-11.06-31.56-20.06-45.81-13.14-29.27-25.52-36.78c-14.42-8.73-34.14-8.62-46.53-21-4.12-4.13-3.75-27.76-3.75-27.76S247.39,213.31,238.39,211.06Z" style="fill:#FB7185"></path><g style="clip-path:url(#freepik--clip-path-2--inject-5)"><g style="opacity:0.5"><path d="M341.73,288.7a1.18,1.18,0,0,0,0-.27,1.36,1.36,0,0,0-.57-.86,1.42,1.42,0,0,0-.76-.23v1.36Z" style="opacity:0.2"></path><path d="M340.37,276.45l.21,0-.21-.4Z" style="opacity:0.2"></path><path d="M355.11,315.17a1.36,1.36,0,0,0-2.26,0,1.34,1.34,0,0,0-.23.76h2.72A1.34,1.34,0,0,0,355.11,315.17Z" style="opacity:0.2"></path><path d="M354,301a1.37,1.37,0,1,0,1.36,1.37A1.36,1.36,0,0,0,354,301Z" style="opacity:0.2"></path><path d="M347.17,307.76a1.36,1.36,0,1,0,1.36,1.36A1.36,1.36,0,0,0,347.17,307.76Z" style="opacity:0.2"></path><path d="M360,310.26c-.2-.4-.4-.81-.61-1.21v.07A1.35,1.35,0,0,0,360,310.26Z" style="opacity:0.2"></path><path d="M347.17,294.15a1.36,1.36,0,1,0,1.36,1.36A1.36,1.36,0,0,0,347.17,294.15Z" style="opacity:0.2"></path><path d="M341.73,315.93a1.34,1.34,0,0,0-.24-.76,1.27,1.27,0,0,0-.36-.37,1.34,1.34,0,0,0-.76-.23v1.36Z" style="opacity:0.2"></path><path d="M341.13,301.19a1.34,1.34,0,0,0-.76-.24v2.73a1.42,1.42,0,0,0,.76-.23,1.36,1.36,0,0,0,0-2.26Z" style="opacity:0.2"></path><path d="M340.37,288.7v1.36a1.34,1.34,0,0,0,.76-.23,1.37,1.37,0,0,0,.6-1.13Z" style="opacity:0.2"></path><path d="M366.38,329a1.33,1.33,0,0,0-.15.6,1.46,1.46,0,0,0,.14.59A11.76,11.76,0,0,0,366.38,329Z" style="opacity:0.2"></path><path d="M354,330.91a1.37,1.37,0,1,0-1.36-1.36A1.36,1.36,0,0,0,354,330.91Z" style="opacity:0.2"></path><path d="M347.17,335a1.36,1.36,0,1,0,1.36,1.36A1.36,1.36,0,0,0,347.17,335Z" style="opacity:0.2"></path><path d="M360.79,335a1.36,1.36,0,1,0,1.36,1.36A1.36,1.36,0,0,0,360.79,335Z" style="opacity:0.2"></path><path d="M347.17,321.38a1.36,1.36,0,1,0,1.36,1.36A1.36,1.36,0,0,0,347.17,321.38Z" style="opacity:0.2"></path><path d="M360.79,321.38a1.36,1.36,0,1,0,1.36,1.36A1.36,1.36,0,0,0,360.79,321.38Z" style="opacity:0.2"></path><path d="M341.13,328.42a1.34,1.34,0,0,0-.76-.24v2.73a1.38,1.38,0,0,0,1.36-1.36A1.36,1.36,0,0,0,341.13,328.42Z" style="opacity:0.2"></path><path d="M352.62,315.93a1.32,1.32,0,0,0,.11.53,1.35,1.35,0,0,0,1.25.83,1.37,1.37,0,0,0,1.26-.83,1.51,1.51,0,0,0,.1-.53Z" style="opacity:0.2"></path><path d="M340.37,315.93v1.36a1.34,1.34,0,0,0,.76-.23,1.43,1.43,0,0,0,.49-.6,1.32,1.32,0,0,0,.11-.53Z" style="opacity:0.2"></path><path d="M328.11,261.47a1.34,1.34,0,0,0-.23-.76,1.36,1.36,0,0,0-2.26,0,1.42,1.42,0,0,0-.23.76Z" style="opacity:0.2"></path><path d="M321.31,254.66a1.37,1.37,0,1,0-1.37,1.37A1.36,1.36,0,0,0,321.31,254.66Z" style="opacity:0.2"></path><path d="M314.5,261.47a1.42,1.42,0,0,0-.23-.76,1.62,1.62,0,0,0-.37-.37,1.42,1.42,0,0,0-.76-.23v1.36Z" style="opacity:0.2"></path><path d="M313.14,249.22a1.42,1.42,0,0,0,.76-.23,1.36,1.36,0,0,0,0-2.26,1.34,1.34,0,0,0-.76-.24Z" style="opacity:0.2"></path><path d="M340.37,287.34a1.32,1.32,0,0,0-.53.11,1.35,1.35,0,0,0-.81,1,1.18,1.18,0,0,0,0,.27h1.37Z" style="opacity:0.2"></path><path d="M326.75,287.34a1.35,1.35,0,0,0-1.33,1.09,1.18,1.18,0,0,0,0,.27h2.72a2.28,2.28,0,0,0,0-.27A1.37,1.37,0,0,0,326.75,287.34Z" style="opacity:0.2"></path><path d="M339.38,274.15a1.35,1.35,0,0,0,.46,2.19,1.32,1.32,0,0,0,.53.11V276Z" style="opacity:0.2"></path><path d="M326.75,273.72a1.37,1.37,0,1,0,1.36,1.37A1.36,1.36,0,0,0,326.75,273.72Z" style="opacity:0.2"></path><path d="M319.94,280.53a1.36,1.36,0,1,0,1.37,1.36A1.36,1.36,0,0,0,319.94,280.53Z" style="opacity:0.2"></path><path d="M333.56,280.53a1.36,1.36,0,1,0,1.36,1.36A1.36,1.36,0,0,0,333.56,280.53Z" style="opacity:0.2"></path><path d="M319.94,266.92a1.36,1.36,0,1,0,1.37,1.36A1.36,1.36,0,0,0,319.94,266.92Z" style="opacity:0.2"></path><path d="M333.56,269.64a1.36,1.36,0,1,0-1.36-1.36A1.36,1.36,0,0,0,333.56,269.64Z" style="opacity:0.2"></path><path d="M314.5,288.7a1.18,1.18,0,0,0,0-.27,1.36,1.36,0,0,0-.57-.86,1.42,1.42,0,0,0-.76-.23v1.36Z" style="opacity:0.2"></path><path d="M313.9,274a1.34,1.34,0,0,0-.76-.24v2.73a1.42,1.42,0,0,0,.76-.23,1.36,1.36,0,0,0,0-2.26Z" style="opacity:0.2"></path><path d="M325.5,262a1.35,1.35,0,0,0,1.25.83A1.36,1.36,0,0,0,328,262a1.32,1.32,0,0,0,.1-.53h-2.72A1.32,1.32,0,0,0,325.5,262Z" style="opacity:0.2"></path><path d="M313.14,262.83a1.34,1.34,0,0,0,.76-.23,1.36,1.36,0,0,0,.49-.6,1.32,1.32,0,0,0,.11-.53h-1.36Z" style="opacity:0.2"></path><path d="M340.37,314.57a1.32,1.32,0,0,0-.53.11,1.26,1.26,0,0,0-.6.49,1.34,1.34,0,0,0-.24.76h1.37Z" style="opacity:0.2"></path><path d="M327.88,315.17a1.35,1.35,0,0,0-2.47.56l.13.2h2.57A1.34,1.34,0,0,0,327.88,315.17Z" style="opacity:0.2"></path><path d="M339.84,301.06a1.36,1.36,0,0,0,0,2.51,1.32,1.32,0,0,0,.53.11V301A1.32,1.32,0,0,0,339.84,301.06Z" style="opacity:0.2"></path><path d="M326.75,301a1.37,1.37,0,1,0,1.36,1.37A1.36,1.36,0,0,0,326.75,301Z" style="opacity:0.2"></path><path d="M320.33,307.82c.31.5.63,1,1,1.5a1.23,1.23,0,0,0,0-.2A1.37,1.37,0,0,0,320.33,307.82Z" style="opacity:0.2"></path><path d="M333.56,307.76a1.36,1.36,0,1,0,1.36,1.36A1.36,1.36,0,0,0,333.56,307.76Z" style="opacity:0.2"></path><path d="M318.58,295.51a1.37,1.37,0,1,0,1.36-1.36A1.36,1.36,0,0,0,318.58,295.51Z" style="opacity:0.2"></path><path d="M333.56,294.15a1.36,1.36,0,1,0,1.36,1.36A1.36,1.36,0,0,0,333.56,294.15Z" style="opacity:0.2"></path><path d="M339,288.7a1.36,1.36,0,0,0,.84,1.25,1.32,1.32,0,0,0,.53.11V288.7Z" style="opacity:0.2"></path><path d="M326.75,290.06a1.36,1.36,0,0,0,1.36-1.36h-2.72A1.36,1.36,0,0,0,326.75,290.06Z" style="opacity:0.2"></path><path d="M313.14,288.7v1.36a1.34,1.34,0,0,0,.76-.23,1.37,1.37,0,0,0,.6-1.13Z" style="opacity:0.2"></path><path d="M339.84,328.29a1.36,1.36,0,0,0,0,2.51,1.32,1.32,0,0,0,.53.11v-2.73A1.32,1.32,0,0,0,339.84,328.29Z" style="opacity:0.2"></path><path d="M332.2,322.74a1.36,1.36,0,1,0,1.36-1.36A1.36,1.36,0,0,0,332.2,322.74Z" style="opacity:0.2"></path><path d="M339,315.93a1.38,1.38,0,0,0,1.37,1.36v-1.36Z" style="opacity:0.2"></path><path d="M325.54,315.93l.85,1.31a1.49,1.49,0,0,0,.36.05,1.36,1.36,0,0,0,1.26-.83,1.32,1.32,0,0,0,.1-.53Z" style="opacity:0.2"></path><path d="M313.14,261.47v-1.36a1.36,1.36,0,0,0-1.13.6,1.34,1.34,0,0,0-.23.76Z" style="opacity:0.2"></path><path d="M300.88,261.47a1.34,1.34,0,0,0-.23-.76,1.36,1.36,0,0,0-2.26,0,1.42,1.42,0,0,0-.23.76Z" style="opacity:0.2"></path><path d="M311.78,247.86a1.36,1.36,0,0,0,1.36,1.36v-2.73A1.36,1.36,0,0,0,311.78,247.86Z" style="opacity:0.2"></path><path d="M299.52,246.49a1.37,1.37,0,1,0,1.36,1.37A1.36,1.36,0,0,0,299.52,246.49Z" style="opacity:0.2"></path><path d="M292.72,256a1.37,1.37,0,1,0-1.37-1.37A1.36,1.36,0,0,0,292.72,256Z" style="opacity:0.2"></path><path d="M307.69,254.66a1.36,1.36,0,1,0-1.36,1.37A1.36,1.36,0,0,0,307.69,254.66Z" style="opacity:0.2"></path><path d="M292.72,242.41a1.36,1.36,0,1,0-1.37-1.36A1.36,1.36,0,0,0,292.72,242.41Z" style="opacity:0.2"></path><path d="M287.27,261.47a1.42,1.42,0,0,0-.23-.76,1.36,1.36,0,0,0-.86-.57l-.27,0v1.36Z" style="opacity:0.2"></path><path d="M285.91,249.22a1.24,1.24,0,0,0,.27,0,1.36,1.36,0,0,0,0-2.67,1.24,1.24,0,0,0-.27,0Z" style="opacity:0.2"></path><path d="M313.14,287.34a1.37,1.37,0,0,0-1.34,1.09,2.28,2.28,0,0,0,0,.27h1.36Z" style="opacity:0.2"></path><path d="M300.86,288.43a1.36,1.36,0,0,0-2.67,0,1.18,1.18,0,0,0,0,.27h2.72A1.18,1.18,0,0,0,300.86,288.43Z" style="opacity:0.2"></path><path d="M311.78,275.09a1.36,1.36,0,0,0,1.36,1.36v-2.73A1.36,1.36,0,0,0,311.78,275.09Z" style="opacity:0.2"></path><path d="M299.52,273.72a1.37,1.37,0,1,0,1.36,1.37A1.36,1.36,0,0,0,299.52,273.72Z" style="opacity:0.2"></path><path d="M292.72,280.53a1.36,1.36,0,1,0,1.36,1.36A1.36,1.36,0,0,0,292.72,280.53Z" style="opacity:0.2"></path><path d="M306.33,280.53a1.36,1.36,0,1,0,1.36,1.36A1.36,1.36,0,0,0,306.33,280.53Z" style="opacity:0.2"></path><path d="M292.72,266.92a1.36,1.36,0,1,0,1.36,1.36A1.36,1.36,0,0,0,292.72,266.92Z" style="opacity:0.2"></path><path d="M306.33,266.92a1.36,1.36,0,1,0,1.36,1.36A1.36,1.36,0,0,0,306.33,266.92Z" style="opacity:0.2"></path><path d="M286.18,287.37l-.27,0v1.36h1.36a1.18,1.18,0,0,0,0-.27A1.36,1.36,0,0,0,286.18,287.37Z" style="opacity:0.2"></path><path d="M286.18,273.75l-.27,0v2.73l.27,0a1.36,1.36,0,0,0,0-2.67Z" style="opacity:0.2"></path><path d="M311.78,261.47a1.32,1.32,0,0,0,.1.53,1.36,1.36,0,0,0,1.26.83v-1.36Z" style="opacity:0.2"></path><path d="M298.27,262a1.35,1.35,0,0,0,1.25.83,1.36,1.36,0,0,0,1.26-.83,1.32,1.32,0,0,0,.1-.53h-2.72A1.32,1.32,0,0,0,298.27,262Z" style="opacity:0.2"></path><path d="M285.91,262.83l.27,0a1.36,1.36,0,0,0,1.09-1.33h-1.36Z" style="opacity:0.2"></path><path d="M300.65,315.17a1.36,1.36,0,0,0-2.26,0,1.42,1.42,0,0,0-.23.76h2.72A1.34,1.34,0,0,0,300.65,315.17Z" style="opacity:0.2"></path><path d="M299.52,301a1.37,1.37,0,1,0,1.36,1.37A1.36,1.36,0,0,0,299.52,301Z" style="opacity:0.2"></path><path d="M292.72,307.76a1.36,1.36,0,1,0,1.36,1.36A1.36,1.36,0,0,0,292.72,307.76Z" style="opacity:0.2"></path><path d="M307.69,309.12a1.36,1.36,0,1,0-1.36,1.36A1.36,1.36,0,0,0,307.69,309.12Z" style="opacity:0.2"></path><path d="M292.72,294.15a1.36,1.36,0,1,0,1.36,1.36A1.36,1.36,0,0,0,292.72,294.15Z" style="opacity:0.2"></path><path d="M305,295.51a1.36,1.36,0,1,0,1.36-1.36A1.36,1.36,0,0,0,305,295.51Z" style="opacity:0.2"></path><path d="M286.18,314.6a1.24,1.24,0,0,0-.27,0v1.36h1.36a1.42,1.42,0,0,0-.23-.76A1.36,1.36,0,0,0,286.18,314.6Z" style="opacity:0.2"></path><path d="M286.18,301a1.24,1.24,0,0,0-.27,0v2.73a1.24,1.24,0,0,0,.27,0,1.36,1.36,0,0,0,0-2.67Z" style="opacity:0.2"></path><path d="M311.78,288.7a1.36,1.36,0,0,0,1.36,1.36V288.7Z" style="opacity:0.2"></path><path d="M299.52,290.06a1.36,1.36,0,0,0,1.36-1.36h-2.72A1.36,1.36,0,0,0,299.52,290.06Z" style="opacity:0.2"></path><path d="M285.91,290.06a1.24,1.24,0,0,0,.27,0,1.35,1.35,0,0,0,1.09-1.33h-1.36Z" style="opacity:0.2"></path><path d="M299.52,330.91a1.37,1.37,0,1,0-1.36-1.36A1.36,1.36,0,0,0,299.52,330.91Z" style="opacity:0.2"></path><path d="M294.08,336.35a1.37,1.37,0,1,0-1.36,1.36A1.36,1.36,0,0,0,294.08,336.35Z" style="opacity:0.2"></path><path d="M292.72,321.38a1.36,1.36,0,1,0,1.36,1.36A1.36,1.36,0,0,0,292.72,321.38Z" style="opacity:0.2"></path><path d="M287.27,343.16a1.18,1.18,0,0,0,0-.27,1.26,1.26,0,0,0-.37-.69l-.2-.17a1.24,1.24,0,0,0-.49-.2l-.27,0v1.36Z" style="opacity:0.2"></path><path d="M286.18,330.88a1.36,1.36,0,0,0,0-2.67l-.27,0v2.73Z" style="opacity:0.2"></path><path d="M299.52,317.29a1.36,1.36,0,0,0,1.26-.83,1.32,1.32,0,0,0,.1-.53h-2.72a1.32,1.32,0,0,0,.11.53A1.35,1.35,0,0,0,299.52,317.29Z" style="opacity:0.2"></path><path d="M285.91,317.29l.27,0a1.36,1.36,0,0,0,1.09-1.33h-1.36Z" style="opacity:0.2"></path><path d="M292.72,348.61a1.36,1.36,0,1,0,1.36,1.36A1.36,1.36,0,0,0,292.72,348.61Z" style="opacity:0.2"></path><path d="M285.91,344.52l.27,0a1.35,1.35,0,0,0,1.09-1.33h-1.36Z" style="opacity:0.2"></path><path d="M260,207a1.34,1.34,0,0,0-.23-.76,1.71,1.71,0,0,0-.35-.36l-.78.35V207Z" style="opacity:0.2"></path><path d="M273.66,234.24a1.24,1.24,0,0,0,0-.27,1.36,1.36,0,0,0-2.67,0,1.24,1.24,0,0,0,0,.27Z" style="opacity:0.2"></path><path d="M270.93,220.63a1.36,1.36,0,0,0,.7,1.18c-.13-.67-.24-1.37-.34-2.09A1.33,1.33,0,0,0,270.93,220.63Z" style="opacity:0.2"></path><path d="M265.49,228.8a1.37,1.37,0,1,0-1.36-1.37A1.36,1.36,0,0,0,265.49,228.8Z" style="opacity:0.2"></path><path d="M265.49,215.18a1.36,1.36,0,1,0-1.36-1.36A1.36,1.36,0,0,0,265.49,215.18Z" style="opacity:0.2"></path><path d="M260,234.24a1.24,1.24,0,0,0,0-.27,1.36,1.36,0,0,0-.57-.86,1.42,1.42,0,0,0-.76-.23v1.36Z" style="opacity:0.2"></path><path d="M259.44,221.76a1.36,1.36,0,0,0,0-2.26,1.34,1.34,0,0,0-.76-.23V222A1.42,1.42,0,0,0,259.44,221.76Z" style="opacity:0.2"></path><path d="M258.68,208.37a1.34,1.34,0,0,0,.76-.23A1.38,1.38,0,0,0,260,207h-1.36Z" style="opacity:0.2"></path><path d="M285.91,260.11a1.38,1.38,0,0,0-1.13.6,1.34,1.34,0,0,0-.23.76h1.36Z" style="opacity:0.2"></path><path d="M272.29,260.11a1.38,1.38,0,0,0-1.36,1.36h2.73a1.34,1.34,0,0,0-.24-.76A1.36,1.36,0,0,0,272.29,260.11Z" style="opacity:0.2"></path><path d="M285.38,246.6a1.36,1.36,0,0,0,0,2.51,1.32,1.32,0,0,0,.53.11v-2.73A1.32,1.32,0,0,0,285.38,246.6Z" style="opacity:0.2"></path><path d="M272.29,249.22a1.37,1.37,0,1,0-1.36-1.36A1.36,1.36,0,0,0,272.29,249.22Z" style="opacity:0.2"></path><path d="M265.49,256a1.37,1.37,0,1,0-1.36-1.37A1.36,1.36,0,0,0,265.49,256Z" style="opacity:0.2"></path><path d="M280.46,254.66A1.36,1.36,0,1,0,279.1,256,1.36,1.36,0,0,0,280.46,254.66Z" style="opacity:0.2"></path><path d="M265.49,242.41a1.36,1.36,0,1,0-1.36-1.36A1.36,1.36,0,0,0,265.49,242.41Z" style="opacity:0.2"></path><path d="M279.1,239.69a1.36,1.36,0,1,0,1.36,1.36A1.36,1.36,0,0,0,279.1,239.69Z" style="opacity:0.2"></path><path d="M260,261.47a1.34,1.34,0,0,0-.23-.76,1.45,1.45,0,0,0-.37-.37,1.42,1.42,0,0,0-.76-.23v1.36Z" style="opacity:0.2"></path><path d="M259.44,249a1.36,1.36,0,0,0,0-2.26,1.34,1.34,0,0,0-.76-.24v2.73A1.42,1.42,0,0,0,259.44,249Z" style="opacity:0.2"></path><path d="M272.29,235.6a1.36,1.36,0,0,0,1.37-1.36h-2.73A1.36,1.36,0,0,0,272.29,235.6Z" style="opacity:0.2"></path><path d="M258.68,235.6a1.34,1.34,0,0,0,.76-.23,1.37,1.37,0,0,0,.6-1.13h-1.36Z" style="opacity:0.2"></path><path d="M285.91,287.34a1.32,1.32,0,0,0-.53.11,1.37,1.37,0,0,0-.81,1,2.28,2.28,0,0,0,0,.27h1.36Z" style="opacity:0.2"></path><path d="M272.29,287.34a1.37,1.37,0,0,0-1.33,1.09,1.18,1.18,0,0,0,0,.27h2.73a1.18,1.18,0,0,0,0-.27A1.37,1.37,0,0,0,272.29,287.34Z" style="opacity:0.2"></path><path d="M285.38,273.83a1.36,1.36,0,0,0,0,2.51,1.32,1.32,0,0,0,.53.11v-2.73A1.32,1.32,0,0,0,285.38,273.83Z" style="opacity:0.2"></path><path d="M272.29,276.45a1.37,1.37,0,1,0-1.36-1.36A1.36,1.36,0,0,0,272.29,276.45Z" style="opacity:0.2"></path><path d="M265.49,280.53a1.36,1.36,0,1,0,1.36,1.36A1.36,1.36,0,0,0,265.49,280.53Z" style="opacity:0.2"></path><path d="M279.1,283.25a1.36,1.36,0,1,0-1.36-1.36A1.36,1.36,0,0,0,279.1,283.25Z" style="opacity:0.2"></path><path d="M265.49,266.92a1.36,1.36,0,1,0,1.36,1.36A1.36,1.36,0,0,0,265.49,266.92Z" style="opacity:0.2"></path><path d="M279.1,269.64a1.36,1.36,0,1,0-1.36-1.36A1.36,1.36,0,0,0,279.1,269.64Z" style="opacity:0.2"></path><path d="M260,288.7a1.18,1.18,0,0,0,0-.27,1.36,1.36,0,0,0-.57-.86,1.42,1.42,0,0,0-.76-.23v1.36Z" style="opacity:0.2"></path><path d="M259.44,276.22a1.36,1.36,0,0,0,0-2.26,1.34,1.34,0,0,0-.76-.24v2.73A1.42,1.42,0,0,0,259.44,276.22Z" style="opacity:0.2"></path><path d="M285.38,262.72a1.32,1.32,0,0,0,.53.11v-1.36h-1.36a1.32,1.32,0,0,0,.83,1.25Z" style="opacity:0.2"></path><path d="M271,262a1.36,1.36,0,0,0,2.51,0,1.32,1.32,0,0,0,.11-.53h-2.73A1.32,1.32,0,0,0,271,262Z" style="opacity:0.2"></path><path d="M258.68,262.83a1.34,1.34,0,0,0,.76-.23,1.36,1.36,0,0,0,.49-.6,1.32,1.32,0,0,0,.11-.53h-1.36Z" style="opacity:0.2"></path><path d="M285.91,314.57a1.38,1.38,0,0,0-1.13.6,1.34,1.34,0,0,0-.23.76h1.36Z" style="opacity:0.2"></path><path d="M273.42,315.17a1.36,1.36,0,0,0-1.13-.6,1.38,1.38,0,0,0-1.36,1.36h2.73A1.34,1.34,0,0,0,273.42,315.17Z" style="opacity:0.2"></path><path d="M285.38,301.06a1.36,1.36,0,0,0,0,2.51,1.32,1.32,0,0,0,.53.11V301A1.32,1.32,0,0,0,285.38,301.06Z" style="opacity:0.2"></path><path d="M272.29,301a1.37,1.37,0,1,0,1.37,1.37A1.36,1.36,0,0,0,272.29,301Z" style="opacity:0.2"></path><path d="M265.49,307.76a1.36,1.36,0,1,0,1.36,1.36A1.36,1.36,0,0,0,265.49,307.76Z" style="opacity:0.2"></path><path d="M279.1,307.76a1.36,1.36,0,1,0,1.36,1.36A1.36,1.36,0,0,0,279.1,307.76Z" style="opacity:0.2"></path><path d="M265.49,294.15a1.36,1.36,0,1,0,1.36,1.36A1.36,1.36,0,0,0,265.49,294.15Z" style="opacity:0.2"></path><path d="M279.1,294.15a1.36,1.36,0,1,0,1.36,1.36A1.36,1.36,0,0,0,279.1,294.15Z" style="opacity:0.2"></path><path d="M260,315.93a1.34,1.34,0,0,0-.23-.76,1.3,1.3,0,0,0-.37-.37,1.34,1.34,0,0,0-.76-.23v1.36Z" style="opacity:0.2"></path><path d="M259.44,301.19a1.34,1.34,0,0,0-.76-.24v2.73a1.42,1.42,0,0,0,.76-.23,1.36,1.36,0,0,0,0-2.26Z" style="opacity:0.2"></path><path d="M284.55,288.7a1.35,1.35,0,0,0,.83,1.25,1.32,1.32,0,0,0,.53.11V288.7Z" style="opacity:0.2"></path><path d="M272.29,290.06a1.36,1.36,0,0,0,1.37-1.36h-2.73A1.36,1.36,0,0,0,272.29,290.06Z" style="opacity:0.2"></path><path d="M258.68,288.7v1.36a1.34,1.34,0,0,0,.76-.23,1.37,1.37,0,0,0,.6-1.13Z" style="opacity:0.2"></path><path d="M285.91,341.8a1.27,1.27,0,0,0-.28,0,.81.81,0,0,0-.25.08,1,1,0,0,0-.23.12,1.12,1.12,0,0,0-.2.17,1.34,1.34,0,0,0-.38.69,2.28,2.28,0,0,0,0,.27h1.36Z" style="opacity:0.2"></path><path d="M273.26,342.2a1.73,1.73,0,0,0-.21-.17,1.14,1.14,0,0,0-.48-.2,1.27,1.27,0,0,0-.28,0l-.27,0a1.24,1.24,0,0,0-.49.2l-.2.17a1.33,1.33,0,0,0-.37.69,1.18,1.18,0,0,0,0,.27h2.73a1.18,1.18,0,0,0,0-.27A1.41,1.41,0,0,0,273.26,342.2Z" style="opacity:0.2"></path><path d="M285.91,328.18a1.32,1.32,0,0,0-.53.11,1.36,1.36,0,0,0,0,2.51,1.32,1.32,0,0,0,.53.11Z" style="opacity:0.2"></path><path d="M272.29,330.91a1.37,1.37,0,1,0-1.36-1.36A1.36,1.36,0,0,0,272.29,330.91Z" style="opacity:0.2"></path><path d="M265.49,335a1.36,1.36,0,1,0,1.36,1.36A1.36,1.36,0,0,0,265.49,335Z" style="opacity:0.2"></path><path d="M279.1,335a1.36,1.36,0,1,0,1.36,1.36A1.36,1.36,0,0,0,279.1,335Z" style="opacity:0.2"></path><path d="M265.49,321.38a1.36,1.36,0,1,0,1.36,1.36A1.36,1.36,0,0,0,265.49,321.38Z" style="opacity:0.2"></path><path d="M279.1,321.38a1.36,1.36,0,1,0,1.36,1.36A1.36,1.36,0,0,0,279.1,321.38Z" style="opacity:0.2"></path><path d="M260,343.16a1.18,1.18,0,0,0,0-.27,1.26,1.26,0,0,0-.37-.69l-.2-.17a1.45,1.45,0,0,0-.76-.23v1.36Z" style="opacity:0.2"></path><path d="M259.44,328.42a1.34,1.34,0,0,0-.76-.24v2.73a1.38,1.38,0,0,0,1.36-1.36A1.36,1.36,0,0,0,259.44,328.42Z" style="opacity:0.2"></path><path d="M284.55,315.93a1.37,1.37,0,0,0,1.36,1.36v-1.36Z" style="opacity:0.2"></path><path d="M270.93,315.93a1.32,1.32,0,0,0,.11.53,1.36,1.36,0,0,0,2.51,0,1.32,1.32,0,0,0,.11-.53Z" style="opacity:0.2"></path><path d="M258.68,315.93v1.36a1.34,1.34,0,0,0,.76-.23,1.36,1.36,0,0,0,.49-.6,1.32,1.32,0,0,0,.11-.53Z" style="opacity:0.2"></path><path d="M272.29,355.41a1.36,1.36,0,0,0-1.36,1.36h0c.94,0,1.84-.12,2.71-.18A1.36,1.36,0,0,0,272.29,355.41Z" style="opacity:0.2"></path><path d="M264.13,350a1.36,1.36,0,1,0,1.36-1.36A1.36,1.36,0,0,0,264.13,350Z" style="opacity:0.2"></path><path d="M277.74,350a1.36,1.36,0,1,0,1.36-1.36A1.36,1.36,0,0,0,277.74,350Z" style="opacity:0.2"></path><path d="M260,357a1.79,1.79,0,0,0,0-.24,1.38,1.38,0,0,0-1.36-1.36V357Z" style="opacity:0.2"></path><path d="M285.91,343.16h-1.36a1.35,1.35,0,0,0,.83,1.25,1.32,1.32,0,0,0,.53.11Z" style="opacity:0.2"></path><path d="M272.29,344.52a1.36,1.36,0,0,0,1.37-1.36h-2.73A1.36,1.36,0,0,0,272.29,344.52Z" style="opacity:0.2"></path><path d="M258.68,343.16v1.36a1.34,1.34,0,0,0,.76-.23,1.37,1.37,0,0,0,.6-1.13Z" style="opacity:0.2"></path><path d="M258.68,206.24l-1.34.57a1.36,1.36,0,0,0,0,.2h1.36Z" style="opacity:0.2"></path><path d="M258.68,232.88a1.35,1.35,0,0,0-1.33,1.09,1.24,1.24,0,0,0,0,.27h1.36Z" style="opacity:0.2"></path><path d="M245.06,232.88a1.37,1.37,0,0,0-1.33,1.09,1.24,1.24,0,0,0,0,.27h2.73a1.24,1.24,0,0,0,0-.27A1.37,1.37,0,0,0,245.06,232.88Z" style="opacity:0.2"></path><path d="M258.68,222v-2.72a1.36,1.36,0,1,0,0,2.72Z" style="opacity:0.2"></path><path d="M245.06,219.27a1.36,1.36,0,1,0,1.37,1.36A1.36,1.36,0,0,0,245.06,219.27Z" style="opacity:0.2"></path><path d="M239.34,226.62l.09,1.49a1.31,1.31,0,0,0,.19-.68A1.35,1.35,0,0,0,239.34,226.62Z" style="opacity:0.2"></path><path d="M253.23,227.43a1.36,1.36,0,1,0-1.36,1.37A1.36,1.36,0,0,0,253.23,227.43Z" style="opacity:0.2"></path><path d="M239.62,213.82a1.36,1.36,0,0,0-1.14-1.34l.16,2.64A1.36,1.36,0,0,0,239.62,213.82Z" style="opacity:0.2"></path><path d="M251.87,212.46a1.36,1.36,0,1,0,1.36,1.36A1.36,1.36,0,0,0,251.87,212.46Z" style="opacity:0.2"></path><path d="M232.81,234.24a1.24,1.24,0,0,0,0-.27,1.35,1.35,0,0,0-1.05-1.06,1.33,1.33,0,0,0-.28,0v1.36Z" style="opacity:0.2"></path><path d="M258.68,208.37V207h-1.36a1.51,1.51,0,0,0,.1.53A1.37,1.37,0,0,0,258.68,208.37Z" style="opacity:0.2"></path><path d="M258.68,261.47v-1.36a1.37,1.37,0,0,0-1.13.6,1.34,1.34,0,0,0-.23.76Z" style="opacity:0.2"></path><path d="M245.06,260.11a1.38,1.38,0,0,0-1.36,1.36h2.73a1.34,1.34,0,0,0-.24-.76A1.36,1.36,0,0,0,245.06,260.11Z" style="opacity:0.2"></path><path d="M258.68,249.22v-2.73a1.37,1.37,0,0,0,0,2.73Z" style="opacity:0.2"></path><path d="M245.06,249.22a1.37,1.37,0,1,0-1.36-1.36A1.36,1.36,0,0,0,245.06,249.22Z" style="opacity:0.2"></path><path d="M238.26,256a1.37,1.37,0,1,0-1.36-1.37A1.36,1.36,0,0,0,238.26,256Z" style="opacity:0.2"></path><path d="M251.87,256a1.37,1.37,0,1,0-1.36-1.37A1.36,1.36,0,0,0,251.87,256Z" style="opacity:0.2"></path><path d="M238.26,242.41a1.36,1.36,0,1,0-1.36-1.36A1.36,1.36,0,0,0,238.26,242.41Z" style="opacity:0.2"></path><path d="M251.87,242.41a1.36,1.36,0,1,0-1.36-1.36A1.36,1.36,0,0,0,251.87,242.41Z" style="opacity:0.2"></path><path d="M232.81,261.47a1.34,1.34,0,0,0-.23-.76,1.36,1.36,0,0,0-.85-.57,1.33,1.33,0,0,0-.28,0v1.36Z" style="opacity:0.2"></path><path d="M231.73,249.19a1.37,1.37,0,0,0,0-2.67,1.33,1.33,0,0,0-.28,0v2.73A1.33,1.33,0,0,0,231.73,249.19Z" style="opacity:0.2"></path><path d="M258.68,235.6v-1.36h-1.36A1.36,1.36,0,0,0,258.68,235.6Z" style="opacity:0.2"></path><path d="M245.06,235.6a1.36,1.36,0,0,0,1.37-1.36H243.7A1.36,1.36,0,0,0,245.06,235.6Z" style="opacity:0.2"></path><path d="M231.45,235.6a1.36,1.36,0,0,0,1.36-1.36h-1.36Z" style="opacity:0.2"></path><path d="M258.68,287.34a1.35,1.35,0,0,0-1.33,1.09,1.18,1.18,0,0,0,0,.27h1.36Z" style="opacity:0.2"></path><path d="M245.06,287.34a1.37,1.37,0,0,0-1.33,1.09,1.18,1.18,0,0,0,0,.27h2.73a1.18,1.18,0,0,0,0-.27A1.37,1.37,0,0,0,245.06,287.34Z" style="opacity:0.2"></path><path d="M258.68,276.45v-2.73a1.37,1.37,0,0,0,0,2.73Z" style="opacity:0.2"></path><path d="M245.06,276.45a1.37,1.37,0,1,0-1.36-1.36A1.36,1.36,0,0,0,245.06,276.45Z" style="opacity:0.2"></path><path d="M238.26,280.53a1.36,1.36,0,1,0,1.36,1.36A1.36,1.36,0,0,0,238.26,280.53Z" style="opacity:0.2"></path><path d="M251.87,283.25a1.36,1.36,0,1,0-1.36-1.36A1.36,1.36,0,0,0,251.87,283.25Z" style="opacity:0.2"></path><path d="M238.26,266.92a1.36,1.36,0,1,0,1.36,1.36A1.36,1.36,0,0,0,238.26,266.92Z" style="opacity:0.2"></path><path d="M251.87,269.64a1.36,1.36,0,1,0-1.36-1.36A1.36,1.36,0,0,0,251.87,269.64Z" style="opacity:0.2"></path><path d="M231.73,287.37a1.33,1.33,0,0,0-.28,0v1.36h1.36a1.18,1.18,0,0,0,0-.27A1.33,1.33,0,0,0,231.73,287.37Z" style="opacity:0.2"></path><path d="M231.73,273.75a1.33,1.33,0,0,0-.28,0v2.73a1.33,1.33,0,0,0,.28,0,1.37,1.37,0,0,0,0-2.67Z" style="opacity:0.2"></path><path d="M257.32,261.47a1.51,1.51,0,0,0,.1.53,1.37,1.37,0,0,0,1.26.83v-1.36Z" style="opacity:0.2"></path><path d="M243.81,262a1.36,1.36,0,0,0,2.51,0,1.32,1.32,0,0,0,.11-.53H243.7A1.32,1.32,0,0,0,243.81,262Z" style="opacity:0.2"></path><path d="M231.45,262.83a1.37,1.37,0,0,0,1.36-1.36h-1.36Z" style="opacity:0.2"></path><path d="M258.68,314.57a1.37,1.37,0,0,0-1.13.6,1.34,1.34,0,0,0-.23.76h1.36Z" style="opacity:0.2"></path><path d="M246.19,315.17a1.36,1.36,0,0,0-1.13-.6,1.38,1.38,0,0,0-1.36,1.36h2.73A1.34,1.34,0,0,0,246.19,315.17Z" style="opacity:0.2"></path><path d="M257.32,302.32a1.36,1.36,0,0,0,1.36,1.36V301A1.36,1.36,0,0,0,257.32,302.32Z" style="opacity:0.2"></path><path d="M245.06,301a1.37,1.37,0,1,0,1.37,1.37A1.36,1.36,0,0,0,245.06,301Z" style="opacity:0.2"></path><path d="M238.26,307.76a1.36,1.36,0,1,0,1.36,1.36A1.36,1.36,0,0,0,238.26,307.76Z" style="opacity:0.2"></path><path d="M251.87,307.76a1.36,1.36,0,1,0,1.36,1.36A1.36,1.36,0,0,0,251.87,307.76Z" style="opacity:0.2"></path><path d="M238.26,294.15a1.36,1.36,0,1,0,1.36,1.36A1.36,1.36,0,0,0,238.26,294.15Z" style="opacity:0.2"></path><path d="M251.87,294.15a1.36,1.36,0,1,0,1.36,1.36A1.36,1.36,0,0,0,251.87,294.15Z" style="opacity:0.2"></path><path d="M232.81,315.93a1.34,1.34,0,0,0-.23-.76,1.36,1.36,0,0,0-.85-.57,1.33,1.33,0,0,0-.28,0v1.36Z" style="opacity:0.2"></path><path d="M231.73,301a1.33,1.33,0,0,0-.28,0v2.73a1.33,1.33,0,0,0,.28,0,1.37,1.37,0,0,0,0-2.67Z" style="opacity:0.2"></path><path d="M257.32,288.7a1.36,1.36,0,0,0,1.36,1.36V288.7Z" style="opacity:0.2"></path><path d="M245.06,290.06a1.36,1.36,0,0,0,1.37-1.36H243.7A1.36,1.36,0,0,0,245.06,290.06Z" style="opacity:0.2"></path><path d="M231.45,290.06a1.36,1.36,0,0,0,1.36-1.36h-1.36Z" style="opacity:0.2"></path><path d="M258.68,341.8a1.45,1.45,0,0,0-.76.23l-.2.17a1.26,1.26,0,0,0-.37.69,1.18,1.18,0,0,0,0,.27h1.36Z" style="opacity:0.2"></path><path d="M246,342.2l-.2-.17a1.24,1.24,0,0,0-.49-.2,1.27,1.27,0,0,0-.28,0l-.27,0a1.24,1.24,0,0,0-.49.2l-.2.17a1.41,1.41,0,0,0-.37.69,1.18,1.18,0,0,0,0,.27h2.73a1.18,1.18,0,0,0,0-.27A1.41,1.41,0,0,0,246,342.2Z" style="opacity:0.2"></path><path d="M257.32,329.55a1.36,1.36,0,0,0,1.36,1.36v-2.73A1.36,1.36,0,0,0,257.32,329.55Z" style="opacity:0.2"></path><path d="M245.06,330.91a1.37,1.37,0,1,0-1.36-1.36A1.36,1.36,0,0,0,245.06,330.91Z" style="opacity:0.2"></path><path d="M238.26,335a1.36,1.36,0,1,0,1.36,1.36A1.36,1.36,0,0,0,238.26,335Z" style="opacity:0.2"></path><path d="M251.87,335a1.36,1.36,0,1,0,1.36,1.36A1.36,1.36,0,0,0,251.87,335Z" style="opacity:0.2"></path><path d="M238.26,321.38a1.36,1.36,0,1,0,1.36,1.36A1.36,1.36,0,0,0,238.26,321.38Z" style="opacity:0.2"></path><path d="M251.87,321.38a1.36,1.36,0,1,0,1.36,1.36A1.36,1.36,0,0,0,251.87,321.38Z" style="opacity:0.2"></path><path d="M232.81,343.16a1.18,1.18,0,0,0,0-.27,1.26,1.26,0,0,0-.37-.69l-.2-.17a1.2,1.2,0,0,0-.48-.2,1.33,1.33,0,0,0-.28,0v1.36Z" style="opacity:0.2"></path><path d="M231.73,330.88a1.37,1.37,0,0,0,0-2.67,1.33,1.33,0,0,0-.28,0v2.73A1.33,1.33,0,0,0,231.73,330.88Z" style="opacity:0.2"></path><path d="M257.32,315.93a1.51,1.51,0,0,0,.1.53,1.37,1.37,0,0,0,1.26.83v-1.36Z" style="opacity:0.2"></path><path d="M243.7,315.93a1.32,1.32,0,0,0,.11.53,1.36,1.36,0,0,0,2.51,0,1.32,1.32,0,0,0,.11-.53Z" style="opacity:0.2"></path><path d="M231.45,315.93v1.36a1.37,1.37,0,0,0,1.36-1.36Z" style="opacity:0.2"></path><path d="M258.68,355.41a1.36,1.36,0,0,0-1.36,1.36,1.11,1.11,0,0,0,0,.19c.44,0,.89,0,1.34,0Z" style="opacity:0.2"></path><path d="M245.06,355.41a1.33,1.33,0,0,0-.8.27l1.9.29A1.36,1.36,0,0,0,245.06,355.41Z" style="opacity:0.2"></path><path d="M236.9,350a1.36,1.36,0,1,0,1.36-1.36A1.36,1.36,0,0,0,236.9,350Z" style="opacity:0.2"></path><path d="M250.51,350a1.36,1.36,0,1,0,1.36-1.36A1.36,1.36,0,0,0,250.51,350Z" style="opacity:0.2"></path><path d="M257.32,343.16a1.36,1.36,0,0,0,1.36,1.36v-1.36Z" style="opacity:0.2"></path><path d="M245.06,344.52a1.36,1.36,0,0,0,1.37-1.36H243.7A1.36,1.36,0,0,0,245.06,344.52Z" style="opacity:0.2"></path><path d="M231.45,344.52a1.36,1.36,0,0,0,1.36-1.36h-1.36Z" style="opacity:0.2"></path><path d="M231.45,234.24v-1.36a1.36,1.36,0,0,0-1.33,1.09,1.24,1.24,0,0,0,0,.27Z" style="opacity:0.2"></path><path d="M216.48,234.24h2.72a1.24,1.24,0,0,0,0-.27,1.31,1.31,0,0,0-.09-.28l-2.5,0a1.83,1.83,0,0,0-.08.25A1.23,1.23,0,0,0,216.48,234.24Z" style="opacity:0.2"></path><path d="M231.45,261.47v-1.36a1.32,1.32,0,0,0-.53.11,1.36,1.36,0,0,0-.6.49,1.34,1.34,0,0,0-.23.76Z" style="opacity:0.2"></path><path d="M219,260.71a1.36,1.36,0,0,0-2.26,0,1.34,1.34,0,0,0-.23.76h2.72A1.42,1.42,0,0,0,219,260.71Z" style="opacity:0.2"></path><path d="M230.92,249.11a1.32,1.32,0,0,0,.53.11v-2.73a1.32,1.32,0,0,0-.53.11,1.36,1.36,0,0,0,0,2.51Z" style="opacity:0.2"></path><path d="M217.84,246.49a1.37,1.37,0,1,0,1.36,1.37A1.36,1.36,0,0,0,217.84,246.49Z" style="opacity:0.2"></path><path d="M211,256a1.37,1.37,0,1,0-1.36-1.37A1.36,1.36,0,0,0,211,256Z" style="opacity:0.2"></path><path d="M224.64,256a1.37,1.37,0,1,0-1.36-1.37A1.37,1.37,0,0,0,224.64,256Z" style="opacity:0.2"></path><path d="M209.67,241.05a1.36,1.36,0,1,0,1.36-1.36A1.36,1.36,0,0,0,209.67,241.05Z" style="opacity:0.2"></path><path d="M224.64,242.41a1.36,1.36,0,1,0-1.36-1.36A1.36,1.36,0,0,0,224.64,242.41Z" style="opacity:0.2"></path><path d="M205,260.34a1.39,1.39,0,0,0-.76-.23v1.36h1.36a1.34,1.34,0,0,0-.23-.76A1.45,1.45,0,0,0,205,260.34Z" style="opacity:0.2"></path><path d="M205,246.73a1.32,1.32,0,0,0-.76-.24v2.73A1.39,1.39,0,0,0,205,249a1.36,1.36,0,0,0,0-2.26Z" style="opacity:0.2"></path><path d="M230.09,234.24a1.35,1.35,0,0,0,.83,1.25,1.32,1.32,0,0,0,.53.11v-1.36Z" style="opacity:0.2"></path><path d="M217.84,235.6a1.36,1.36,0,0,0,1.36-1.36h-2.72A1.36,1.36,0,0,0,217.84,235.6Z" style="opacity:0.2"></path><path d="M205,235.37a1.36,1.36,0,0,0,.6-1.13l-1.36.2v1.16A1.31,1.31,0,0,0,205,235.37Z" style="opacity:0.2"></path><path d="M231.45,287.34a1.36,1.36,0,0,0-1.33,1.09,1.18,1.18,0,0,0,0,.27h1.36Z" style="opacity:0.2"></path><path d="M217.84,287.34a1.37,1.37,0,0,0-1.34,1.09,1.18,1.18,0,0,0,0,.27h2.72a1.18,1.18,0,0,0,0-.27A1.37,1.37,0,0,0,217.84,287.34Z" style="opacity:0.2"></path><path d="M230.92,273.83a1.36,1.36,0,0,0,0,2.51,1.32,1.32,0,0,0,.53.11v-2.73A1.32,1.32,0,0,0,230.92,273.83Z" style="opacity:0.2"></path><path d="M217.84,276.45a1.37,1.37,0,1,0-1.36-1.36A1.36,1.36,0,0,0,217.84,276.45Z" style="opacity:0.2"></path><path d="M211,283.25a1.36,1.36,0,1,0-1.36-1.36A1.36,1.36,0,0,0,211,283.25Z" style="opacity:0.2"></path><path d="M224.64,283.25a1.36,1.36,0,1,0-1.36-1.36A1.36,1.36,0,0,0,224.64,283.25Z" style="opacity:0.2"></path><path d="M211,269.64a1.36,1.36,0,1,0-1.36-1.36A1.36,1.36,0,0,0,211,269.64Z" style="opacity:0.2"></path><path d="M223.28,268.28a1.37,1.37,0,1,0,1.36-1.36A1.36,1.36,0,0,0,223.28,268.28Z" style="opacity:0.2"></path><path d="M205.58,288.7a2.28,2.28,0,0,0,0-.27,1.41,1.41,0,0,0-.58-.86,1.39,1.39,0,0,0-.76-.23v1.36Z" style="opacity:0.2"></path><path d="M205,274a1.32,1.32,0,0,0-.76-.24v2.73a1.39,1.39,0,0,0,.76-.23,1.36,1.36,0,0,0,0-2.26Z" style="opacity:0.2"></path><path d="M230.09,261.47a1.32,1.32,0,0,0,.11.53,1.27,1.27,0,0,0,.72.72,1.32,1.32,0,0,0,.53.11v-1.36Z" style="opacity:0.2"></path><path d="M217.84,262.83a1.36,1.36,0,0,0,1.25-.83,1.32,1.32,0,0,0,.11-.53h-2.72a1.32,1.32,0,0,0,.1.53A1.36,1.36,0,0,0,217.84,262.83Z" style="opacity:0.2"></path><path d="M204.22,262.83a1.31,1.31,0,0,0,.76-.23,1.46,1.46,0,0,0,.5-.6,1.51,1.51,0,0,0,.1-.53h-1.36Z" style="opacity:0.2"></path><path d="M231.45,314.57a1.32,1.32,0,0,0-.53.11,1.36,1.36,0,0,0-.6.49,1.34,1.34,0,0,0-.23.76h1.36Z" style="opacity:0.2"></path><path d="M219,315.17a1.36,1.36,0,0,0-2.26,0,1.34,1.34,0,0,0-.23.76h2.72A1.42,1.42,0,0,0,219,315.17Z" style="opacity:0.2"></path><path d="M230.92,301.06a1.36,1.36,0,0,0,0,2.51,1.32,1.32,0,0,0,.53.11V301A1.32,1.32,0,0,0,230.92,301.06Z" style="opacity:0.2"></path><path d="M217.84,301a1.37,1.37,0,1,0,1.36,1.37A1.36,1.36,0,0,0,217.84,301Z" style="opacity:0.2"></path><path d="M211,307.76a1.36,1.36,0,1,0,1.36,1.36A1.36,1.36,0,0,0,211,307.76Z" style="opacity:0.2"></path><path d="M224.64,307.76a1.36,1.36,0,1,0,1.37,1.36A1.36,1.36,0,0,0,224.64,307.76Z" style="opacity:0.2"></path><path d="M211,294.15a1.36,1.36,0,1,0,1.36,1.36A1.36,1.36,0,0,0,211,294.15Z" style="opacity:0.2"></path><path d="M224.64,294.15a1.36,1.36,0,1,0,1.37,1.36A1.36,1.36,0,0,0,224.64,294.15Z" style="opacity:0.2"></path><path d="M205,314.8a1.31,1.31,0,0,0-.76-.23v1.36h1.36a1.34,1.34,0,0,0-.23-.76A1.3,1.3,0,0,0,205,314.8Z" style="opacity:0.2"></path><path d="M205,301.19a1.32,1.32,0,0,0-.76-.24v2.73a1.39,1.39,0,0,0,.76-.23,1.36,1.36,0,0,0,0-2.26Z" style="opacity:0.2"></path><path d="M230.09,288.7a1.35,1.35,0,0,0,.83,1.25,1.32,1.32,0,0,0,.53.11V288.7Z" style="opacity:0.2"></path><path d="M217.84,290.06a1.36,1.36,0,0,0,1.36-1.36h-2.72A1.36,1.36,0,0,0,217.84,290.06Z" style="opacity:0.2"></path><path d="M204.22,288.7v1.36a1.31,1.31,0,0,0,.76-.23,1.35,1.35,0,0,0,.6-1.13Z" style="opacity:0.2"></path><path d="M231.45,341.8l-.27,0a.79.79,0,0,0-.26.08,1,1,0,0,0-.23.12l-.2.17a1.26,1.26,0,0,0-.37.69,1.18,1.18,0,0,0,0,.27h1.36Z" style="opacity:0.2"></path><path d="M218.8,342.2l-.2-.17a1.24,1.24,0,0,0-.49-.2l-.27,0a1.27,1.27,0,0,0-.28,0,1.24,1.24,0,0,0-.49.2l-.2.17a1.41,1.41,0,0,0-.37.69,1.18,1.18,0,0,0,0,.27h2.72a1.18,1.18,0,0,0,0-.27A1.33,1.33,0,0,0,218.8,342.2Z" style="opacity:0.2"></path><path d="M231.45,328.18a1.32,1.32,0,0,0-.53.11,1.36,1.36,0,0,0,0,2.51,1.32,1.32,0,0,0,.53.11Z" style="opacity:0.2"></path><path d="M217.84,330.91a1.37,1.37,0,1,0-1.36-1.36A1.36,1.36,0,0,0,217.84,330.91Z" style="opacity:0.2"></path><path d="M212.39,336.35a1.36,1.36,0,1,0-1.36,1.36A1.36,1.36,0,0,0,212.39,336.35Z" style="opacity:0.2"></path><path d="M224.64,335a1.36,1.36,0,1,0,1.37,1.36A1.36,1.36,0,0,0,224.64,335Z" style="opacity:0.2"></path><path d="M209.67,322.74a1.36,1.36,0,1,0,1.36-1.36A1.36,1.36,0,0,0,209.67,322.74Z" style="opacity:0.2"></path><path d="M224.64,321.38a1.36,1.36,0,1,0,1.37,1.36A1.36,1.36,0,0,0,224.64,321.38Z" style="opacity:0.2"></path><path d="M230.09,315.93a1.32,1.32,0,0,0,.11.53,1.27,1.27,0,0,0,.72.72,1.32,1.32,0,0,0,.53.11v-1.36Z" style="opacity:0.2"></path><path d="M216.48,315.93a1.32,1.32,0,0,0,.1.53,1.36,1.36,0,0,0,2.51,0,1.32,1.32,0,0,0,.11-.53Z" style="opacity:0.2"></path><path d="M204.22,316.73l.33.52a1.38,1.38,0,0,0,.43-.19,1.46,1.46,0,0,0,.5-.6,1.51,1.51,0,0,0,.1-.53h-1.36Z" style="opacity:0.2"></path><path d="M224.64,348.61a1.36,1.36,0,0,0-1.34,1.15q1.19.5,2.46,1A1.39,1.39,0,0,0,226,350,1.36,1.36,0,0,0,224.64,348.61Z" style="opacity:0.2"></path><path d="M231.45,343.16h-1.36a1.35,1.35,0,0,0,.83,1.25,1.32,1.32,0,0,0,.53.11Z" style="opacity:0.2"></path><path d="M217.84,344.52a1.36,1.36,0,0,0,1.36-1.36h-2.72A1.36,1.36,0,0,0,217.84,344.52Z" style="opacity:0.2"></path><path d="M204.22,260.11a1.32,1.32,0,0,0-.53.11,1.36,1.36,0,0,0-.6.49,1.42,1.42,0,0,0-.23.76h1.36Z" style="opacity:0.2"></path><path d="M192,261.47a1.42,1.42,0,0,0-.23-.76,1.36,1.36,0,0,0-2.26,0,1.34,1.34,0,0,0-.23.76Z" style="opacity:0.2"></path><path d="M203.69,246.6a1.36,1.36,0,0,0,0,2.51,1.32,1.32,0,0,0,.53.11v-2.73A1.32,1.32,0,0,0,203.69,246.6Z" style="opacity:0.2"></path><path d="M190.61,246.49a1.37,1.37,0,1,0,1.36,1.37A1.36,1.36,0,0,0,190.61,246.49Z" style="opacity:0.2"></path><path d="M185.16,254.66A1.36,1.36,0,1,0,183.8,256,1.36,1.36,0,0,0,185.16,254.66Z" style="opacity:0.2"></path><path d="M197.41,256a1.37,1.37,0,1,0-1.36-1.37A1.37,1.37,0,0,0,197.41,256Z" style="opacity:0.2"></path><path d="M197.41,242.41a1.36,1.36,0,1,0-1.36-1.36A1.36,1.36,0,0,0,197.41,242.41Z" style="opacity:0.2"></path><path d="M177,260.11v1.36h1.36a1.34,1.34,0,0,0-.23-.76A1.36,1.36,0,0,0,177,260.11Z" style="opacity:0.2"></path><path d="M203.69,235.49a1.32,1.32,0,0,0,.53.11v-1.16l-1.28.23A1.33,1.33,0,0,0,203.69,235.49Z" style="opacity:0.2"></path><path d="M204.22,287.34a1.36,1.36,0,0,0-1.33,1.09,1.18,1.18,0,0,0,0,.27h1.36Z" style="opacity:0.2"></path><path d="M203.69,273.83a1.36,1.36,0,0,0,0,2.51,1.32,1.32,0,0,0,.53.11v-2.73A1.32,1.32,0,0,0,203.69,273.83Z" style="opacity:0.2"></path><path d="M190.61,276.45a1.37,1.37,0,1,0-1.36-1.36A1.36,1.36,0,0,0,190.61,276.45Z" style="opacity:0.2"></path><path d="M183.8,283.25a1.36,1.36,0,1,0-1.36-1.36A1.36,1.36,0,0,0,183.8,283.25Z" style="opacity:0.2"></path><path d="M196.25,281.2a11.53,11.53,0,0,1,1.24-.66h-.08A1.33,1.33,0,0,0,196.25,281.2Z" style="opacity:0.2"></path><path d="M182.44,268.28a1.36,1.36,0,1,0,1.36-1.36A1.36,1.36,0,0,0,182.44,268.28Z" style="opacity:0.2"></path><path d="M196.05,268.28a1.37,1.37,0,1,0,1.36-1.36A1.36,1.36,0,0,0,196.05,268.28Z" style="opacity:0.2"></path><path d="M177,287.34v1.36h1.36a2.28,2.28,0,0,0,0-.27A1.37,1.37,0,0,0,177,287.34Z" style="opacity:0.2"></path><path d="M178.35,275.09a1.36,1.36,0,0,0-1.36-1.37v2.73A1.36,1.36,0,0,0,178.35,275.09Z" style="opacity:0.2"></path><path d="M202.86,261.47a1.32,1.32,0,0,0,.11.53,1.34,1.34,0,0,0,.72.72,1.32,1.32,0,0,0,.53.11v-1.36Z" style="opacity:0.2"></path><path d="M189.35,262a1.36,1.36,0,0,0,1.26.83,1.35,1.35,0,0,0,1.25-.83,1.32,1.32,0,0,0,.11-.53h-2.72A1.32,1.32,0,0,0,189.35,262Z" style="opacity:0.2"></path><path d="M177,262.83a1.36,1.36,0,0,0,1.26-.83,1.32,1.32,0,0,0,.1-.53H177Z" style="opacity:0.2"></path><path d="M204.22,314.57a1.32,1.32,0,0,0-.53.11,1.3,1.3,0,0,0-.48.35c.17.31.35.61.52.9h.49Z" style="opacity:0.2"></path><path d="M203.69,301.06a1.36,1.36,0,0,0,0,2.51,1.32,1.32,0,0,0,.53.11V301A1.32,1.32,0,0,0,203.69,301.06Z" style="opacity:0.2"></path><path d="M202.86,288.7a1.35,1.35,0,0,0,.83,1.25,1.32,1.32,0,0,0,.53.11V288.7Z" style="opacity:0.2"></path><path d="M177,290.06a1.36,1.36,0,0,0,1.36-1.36H177Z" style="opacity:0.2"></path><path d="M203.73,315.93l.49.8v-.8Z" style="opacity:0.2"></path><path d="M177,260.11a1.37,1.37,0,0,0-1.13.6,1.42,1.42,0,0,0-.23.76H177Z" style="opacity:0.2"></path><path d="M164.74,261.47a1.42,1.42,0,0,0-.23-.76,1.36,1.36,0,0,0-2.26,0,1.34,1.34,0,0,0-.23.76Z" style="opacity:0.2"></path><path d="M170.19,256a1.36,1.36,0,0,0,1.36-1.37,1.32,1.32,0,0,0-.2-.68l-1.63,1-.69.41A1.36,1.36,0,0,0,170.19,256Z" style="opacity:0.2"></path><path d="M177,287.34a1.36,1.36,0,0,0-1.33,1.09,1.18,1.18,0,0,0,0,.27H177Z" style="opacity:0.2"></path><path d="M163.38,287.34a1.35,1.35,0,0,0-1.33,1.09,1.18,1.18,0,0,0,0,.27h2.72a1.18,1.18,0,0,0,0-.27A1.35,1.35,0,0,0,163.38,287.34Z" style="opacity:0.2"></path><path d="M177,276.45v-2.73a1.37,1.37,0,0,0,0,2.73Z" style="opacity:0.2"></path><path d="M163.38,273.72a1.37,1.37,0,1,0,1.36,1.37A1.36,1.36,0,0,0,163.38,273.72Z" style="opacity:0.2"></path><path d="M156.57,280.53a1.36,1.36,0,1,0,1.36,1.36A1.36,1.36,0,0,0,156.57,280.53Z" style="opacity:0.2"></path><path d="M170.19,280.53a1.36,1.36,0,1,0,1.36,1.36A1.36,1.36,0,0,0,170.19,280.53Z" style="opacity:0.2"></path><path d="M156.57,266.92a1.36,1.36,0,1,0,1.36,1.36A1.36,1.36,0,0,0,156.57,266.92Z" style="opacity:0.2"></path><path d="M170.19,266.92a1.36,1.36,0,1,0,1.36,1.36A1.36,1.36,0,0,0,170.19,266.92Z" style="opacity:0.2"></path><path d="M151.13,288.7a1.18,1.18,0,0,0,0-.27,1.4,1.4,0,0,0-.57-.86,1.42,1.42,0,0,0-.77-.23v1.36Z" style="opacity:0.2"></path><path d="M150.53,274a1.35,1.35,0,0,0-.77-.24v2.73a1.42,1.42,0,0,0,.77-.23,1.36,1.36,0,0,0,0-2.26Z" style="opacity:0.2"></path><path d="M175.63,261.47a1.32,1.32,0,0,0,.11.53,1.36,1.36,0,0,0,1.25.83v-1.36Z" style="opacity:0.2"></path><path d="M162.12,262a1.36,1.36,0,0,0,1.26.83,1.35,1.35,0,0,0,1.25-.83,1.32,1.32,0,0,0,.11-.53H162A1.51,1.51,0,0,0,162.12,262Z" style="opacity:0.2"></path><path d="M156.57,294.15a1.36,1.36,0,0,0-1.36,1.36,1.34,1.34,0,0,0,.63,1.14l1.8-.3a1.38,1.38,0,0,0,.29-.84A1.36,1.36,0,0,0,156.57,294.15Z" style="opacity:0.2"></path><path d="M175.63,288.7a1.36,1.36,0,0,0,1.36,1.36V288.7Z" style="opacity:0.2"></path><path d="M163.38,290.06a1.36,1.36,0,0,0,1.36-1.36H162A1.36,1.36,0,0,0,163.38,290.06Z" style="opacity:0.2"></path><path d="M149.76,288.7v1.36a1.34,1.34,0,0,0,.77-.23,1.37,1.37,0,0,0,.6-1.13Z" style="opacity:0.2"></path><path d="M149.76,287.34a1.4,1.4,0,0,0-.53.11,1.36,1.36,0,0,0-.8,1,1.18,1.18,0,0,0,0,.27h1.36Z" style="opacity:0.2"></path><path d="M149.23,273.83a1.36,1.36,0,0,0,0,2.51,1.4,1.4,0,0,0,.53.11v-2.73A1.4,1.4,0,0,0,149.23,273.83Z" style="opacity:0.2"></path><path d="M143,283.25a1.36,1.36,0,1,0-1.36-1.36A1.36,1.36,0,0,0,143,283.25Z" style="opacity:0.2"></path><path d="M143.51,294.27c.18.16.38.33.58.48A1.3,1.3,0,0,0,143.51,294.27Z" style="opacity:0.2"></path><path d="M148.4,288.7a1.36,1.36,0,0,0,.83,1.25,1.4,1.4,0,0,0,.53.11V288.7Z" style="opacity:0.2"></path></g></g><path d="M238.39,211.06l1.12,18.39s-4.12,3.75-15.38,4.12-20.64-.37-26.64,3S179.85,249,169.72,255s-30,16.89-30,24.39,0,17.26,11.64,17.64,39.39-12,44.27-15.39a10.34,10.34,0,0,1,9.38-1.5s-8.25,16.14-5.25,26.64,9,15,9.38,18-2.63,12.76-.37,16.14S230.88,357,260.9,357s34.15-5.62,35.27-10.13,1.5-7.88,2.63-10.5,14.26-40.15,14.26-40.15,18.76,30.39,25.89,39,24.94,6,27.19-3.34-11.06-31.56-20.06-45.81-13.14-29.27-25.52-36.78c-14.42-8.73-34.14-8.62-46.53-21-4.12-4.13-3.75-27.76-3.75-27.76S247.39,213.31,238.39,211.06Z" style="fill:none;stroke:#263238;stroke-linecap:round;stroke-miterlimit:10;stroke-width:0.9454538226127625px"></path><path d="M233.77,311.43s5,13.85,21.6,25.48" style="fill:#FB7185;stroke:#263238;stroke-linecap:round;stroke-miterlimit:10;stroke-width:0.9454538226127625px"></path><polyline points="208.37 268.1 204.99 280.1 201.99 253.84" style="fill:none;stroke:#263238;stroke-linecap:round;stroke-miterlimit:10;stroke-width:0.9454538226127625px"></polyline><path d="M234.33,327.49S245.4,338,254.82,338.57" style="fill:#FB7185;stroke:#263238;stroke-linecap:round;stroke-miterlimit:10;stroke-width:0.9454538226127625px"></path><path d="M294.43,239.52C286.91,237,279.7,234,274,228.32c-4.12-4.13-3.75-27.76-3.75-27.76s-22.89,12.75-31.89,10.5l1.12,18.39s-4.12,3.75-15.38,4.12l-1.16,0c3.59,12.15,15.32,49.55,24.42,51.75C255.61,287.34,282,255.33,294.43,239.52Z" style="fill:#969696;stroke:#263238;stroke-linecap:round;stroke-miterlimit:10;stroke-width:0.9454538226127625px"></path><path d="M251.67,218.49c8.07-1.94,14.84-5.81,18.72-10-.16-4.51-.11-8-.11-8s-22.89,12.75-31.89,10.5l.47,7.72C241.25,219.47,245.43,220,251.67,218.49Z" style="fill:#263238;stroke:#263238;stroke-linecap:round;stroke-miterlimit:10;stroke-width:0.9454538226127625px"></path><path d="M332.16,146.5c-3.4-2.12-3.4-7.64-.85-12.31s-2.55-9.76-5.94-9.76-3-6.79-1.27-9.76-3-8.49-7.64-7.64-6.37-2.12-6.37-5.52-.85-6.79-5.09-5.94-6.37.85-8.06-5.09-5.1-8.49-8.49-5.09-3.82,3-7.22-.43-9.33-2.55-12.73.85-7.64,0-7.64,0h0c-2.8-2.33-6.35-3.56-8.59-.82-3.38,4.12-4.88,9.38-7.13,9.38s-4.88-5.26-7.88-4.51-.75,6.76-.75,6.76-9-4.13-9.75,0a18.54,18.54,0,0,0,0,7.13s-5.26-1.13-5.63,1.87-.38.75-.38,3-6.75,4.12-5.25,6.75,6,3.75,6,4.88-3,3-1.87,6,7.5.75,6.75,2.63-6.75,6.75-4.5,9,4.5-2.62,5.63-1.5-1.13,4.88.37,4.88,6-.38,9-2.25,16.51-5.63,27.76-1.88,28.52,28.14,31.9,31.9c3.05,3.39,6.73,4.33,10.73,4.19,1,1.23,2.28,2.32,3.66,2.13,3-.43,4.24-3.4,6.79-6.79s3.4.42,6.79,0,4.67-5.95,4.67-8.92,4.67-1.69,7.64-3.82S335.56,148.62,332.16,146.5Z" style="fill:#263238;stroke:#263238;stroke-linecap:round;stroke-miterlimit:10;stroke-width:0.9454538226127625px"></path><line x1="226.76" y1="191.92" x2="226.76" y2="203.56" style="fill:none;stroke:#263238;stroke-linecap:round;stroke-miterlimit:10;stroke-width:0.9454538226127625px"></line><polygon points="226.76 203.93 221.5 217.44 232.76 217.44 226.76 203.93" style="fill:#fff;stroke:#263238;stroke-linecap:round;stroke-miterlimit:10;stroke-width:0.9454538226127625px"></polygon><path d="M237.26,127.76s-8.63,14.26-9.38,17.64-1.87,11.25-4.13,18-8.63,13.13-7.12,21,12.38,25.89,19.88,29.64S262,211.44,268,205.81s11.26-10.88,11.26-10.88a7.71,7.71,0,0,0,7.5,0c3.75-2.25,18.39-19.14,19.51-22.14S292.42,145,284.17,135.64,243.27,125.51,237.26,127.76Z" style="fill:#969696;stroke:#263238;stroke-linecap:round;stroke-miterlimit:10;stroke-width:0.9454538226127625px"></path><path d="M236.51,170.16s-3.37,4.13-1.87,6.76,7.88,6.37,11.63,1.87" style="fill:none;stroke:#263238;stroke-linecap:round;stroke-miterlimit:10;stroke-width:0.9454538226127625px"></path><line x1="255.27" y1="163.03" x2="252.27" y2="168.29" style="fill:none;stroke:#263238;stroke-linecap:round;stroke-miterlimit:10;stroke-width:0.9454538226127625px"></line><path d="M250,167.91a28.23,28.23,0,0,0,12.76,3.75" style="fill:none;stroke:#263238;stroke-linecap:round;stroke-miterlimit:10;stroke-width:1.890907645225525px"></path><line x1="232.58" y1="157.01" x2="229.58" y2="162.27" style="fill:none;stroke:#263238;stroke-linecap:round;stroke-miterlimit:10;stroke-width:0.9454538226127625px"></line><path d="M227.33,161.89a80.71,80.71,0,0,0,10.13,3.38" style="fill:none;stroke:#263238;stroke-linecap:round;stroke-miterlimit:10;stroke-width:1.890907645225525px"></path><path d="M230.88,152.53s4.88-3.38,9.76-.38" style="fill:none;stroke:#263238;stroke-linecap:round;stroke-miterlimit:10;stroke-width:0.9454538226127625px"></path><path d="M254.15,155.15a9,9,0,0,1,10.13,4.51" style="fill:none;stroke:#263238;stroke-linecap:round;stroke-miterlimit:10;stroke-width:0.9454538226127625px"></path><line x1="283.42" y1="193.8" x2="283.42" y2="205.43" style="fill:none;stroke:#263238;stroke-linecap:round;stroke-miterlimit:10;stroke-width:0.9454538226127625px"></line><polygon points="283.42 205.81 278.16 219.32 289.42 219.32 283.42 205.81" style="fill:none;stroke:#263238;stroke-linecap:round;stroke-miterlimit:10;stroke-width:0.9454538226127625px"></polygon><path d="M284.17,135.64c-8.26-9.38-40.9-10.13-46.91-7.88,0,0-8.63,14.26-9.38,17.64-.13.58-.27,1.29-.42,2.11,4.14-.82,25.44-5,27.81-3.61,2.18,1.24,25,34.93,34.2,48.8,5.59-5.28,15.9-17.41,16.83-19.91C307.43,169.79,292.42,145,284.17,135.64Z" style="fill:#FB7185"></path><g style="clip-path:url(#freepik--clip-path-3--inject-5)"><path d="M225.09,140.89s6.3-9.46,11.34-5.68,8.2,4.42,12-.63,12-6.93,15.76-2.52,7.56,2.52,12.6-2.52" style="fill:none;stroke:#fff;stroke-miterlimit:10;stroke-width:0.9454538226127625px"></path><path d="M259.75,157.91s3.79-8.2,10.09-8.83,5.67,3.78,12,3.78,5.05-4.41,11.35-4.41,15.76,6.93,15.76,6.93" style="fill:none;stroke:#fff;stroke-miterlimit:10;stroke-width:0.9454538226127625px"></path><path d="M272.36,173.66s6.93-9.45,12.61-10.08,8.66,7.13,11.58,5.46,2.91-8.61,10.48-8" style="fill:none;stroke:#fff;stroke-miterlimit:10;stroke-width:0.9454538226127625px"></path><path d="M284.34,186.27s4.41-6.3,9.45-6.93,12.24-1,17.15-4" style="fill:none;stroke:#fff;stroke-miterlimit:10;stroke-width:0.9454538226127625px"></path></g><path d="M284.17,135.64c-8.26-9.38-40.9-10.13-46.91-7.88,0,0-8.63,14.26-9.38,17.64-.13.58-.27,1.29-.42,2.11,4.14-.82,25.44-5,27.81-3.61,2.18,1.24,25,34.93,34.2,48.8,5.59-5.28,15.9-17.41,16.83-19.91C307.43,169.79,292.42,145,284.17,135.64Z" style="fill:none;stroke:#263238;stroke-linecap:round;stroke-miterlimit:10;stroke-width:0.9454538226127625px"></path><path d="M255.27,143.9s23.27-1.5,35.65,1.5" style="fill:none;stroke:#263238;stroke-linecap:round;stroke-miterlimit:10;stroke-width:0.9454538226127625px"></path><path d="M184.89,174.61s7.09-7.36,8.73-12,4.08-6,5.72-1.91-.27,10.91-2.73,13.36-4.36,7.09-4.36,7.09-6-.55-6.54-2.73S184.89,174.61,184.89,174.61Z" style="fill:#969696;stroke:#263238;stroke-linecap:round;stroke-miterlimit:10;stroke-width:0.9454538226127625px"></path><path d="M243.49,191.83a61.86,61.86,0,0,1-8.61-.18c-3.29-.45-4.86-1.89-7.34-3.92-4.34-3.55-13.37-10.93-18.53-13.52-6.51-3.25-18.3-4.27-18.8-4.31a.94.94,0,1,0-.16,1.88c.12,0,11.93,1,18.11,4.13,5,2.48,14.23,10.05,18.19,13.29,2.42,2,4.31,4,7.52,5.07a10,10,0,0,0,9.86-1.69A.41.41,0,0,0,243.49,191.83Z" style="fill:#fff;stroke:#263238;stroke-miterlimit:10;stroke-width:0.9454538226127625px"></path><path d="M176.1,184.8s-3.75-9.76-3.38-10.89,8.63-15.38,10.51-15.38,11.26,2.25,12.38,3.38,6.76,10.5,6.76,10.5,1.12,2.63-.75,2.63-9-7.5-9-7.5h-4.88L184,176.92" style="fill:#969696;stroke:#263238;stroke-linecap:round;stroke-miterlimit:10;stroke-width:0.9454538226127625px"></path><path d="M177.6,175.79s18.39-4.13,19.51-4.5,6.76,13.13,7.51,15.38,4.5,10.51,4.5,10.51,0,2.62-2.25,1.12a18.47,18.47,0,0,1-3.75-3.37l-6.38,3s-1.5,10.88-3.75,15.38-16.89,50.28-21.39,61.91S160,297,153.21,298.49s-13.88-6-14.63-9.76a35.51,35.51,0,0,1,4.88-26.64c7.5-11.63,36.39-49.9,36.39-53.28s-6.75-31.89-6.75-31.89" style="fill:#969696;stroke:#263238;stroke-linecap:round;stroke-miterlimit:10;stroke-width:0.9454538226127625px"></path><path d="M200.49,178.42l-18,5.25s-1.88.38-1.88,3" style="fill:none;stroke:#263238;stroke-linecap:round;stroke-miterlimit:10;stroke-width:0.9454538226127625px"></path><path d="M204.62,186.67s-14.26,5.25-15.39,5.25-2.25,3.76-2.25,3.76" style="fill:none;stroke:#263238;stroke-linecap:round;stroke-miterlimit:10;stroke-width:0.9454538226127625px"></path><path d="M171.6,275.22c2-5.25,6.13-17.47,10.23-29.71-12.71,1.41-17.79-5.59-19.7-9.89-7.49,10.48-15.28,21.21-18.67,26.47a35.51,35.51,0,0,0-4.88,26.64c.75,3.76,7.88,11.26,14.63,9.76S167.1,286.86,171.6,275.22Z" style="fill:#FB7185"></path><g style="clip-path:url(#freepik--clip-path-4--inject-5)"><g style="opacity:0.5"><path d="M177,246.49v2.73a1.37,1.37,0,0,0,0-2.73Z" style="opacity:0.2"></path><path d="M176.46,261.47c.15-.44.3-.9.46-1.35a1.36,1.36,0,0,0-1.06.59,1.42,1.42,0,0,0-.23.76Z" style="opacity:0.2"></path><path d="M164.74,261.47a1.42,1.42,0,0,0-.23-.76,1.36,1.36,0,0,0-2.26,0,1.34,1.34,0,0,0-.23.76Z" style="opacity:0.2"></path><path d="M175.63,247.86a1.36,1.36,0,0,0,1.36,1.36v-2.73A1.36,1.36,0,0,0,175.63,247.86Z" style="opacity:0.2"></path><path d="M163.38,246.49a1.37,1.37,0,1,0,1.36,1.37A1.36,1.36,0,0,0,163.38,246.49Z" style="opacity:0.2"></path><path d="M157.93,254.66a1.36,1.36,0,1,0-1.36,1.37A1.36,1.36,0,0,0,157.93,254.66Z" style="opacity:0.2"></path><path d="M171.55,254.66a1.37,1.37,0,1,0-1.36,1.37A1.36,1.36,0,0,0,171.55,254.66Z" style="opacity:0.2"></path><path d="M157.68,241.83l0,0Z" style="opacity:0.2"></path><path d="M149.76,261.47h1.37a1.34,1.34,0,0,0-.24-.76,1.41,1.41,0,0,0-.36-.37,1.42,1.42,0,0,0-.77-.23Z" style="opacity:0.2"></path><path d="M164.73,288.59c0-.06,0-.11,0-.16a1.36,1.36,0,0,0-2.66,0,1.18,1.18,0,0,0,0,.27h2.63A1,1,0,0,1,164.73,288.59Z" style="opacity:0.2"></path><path d="M163.38,273.72a1.37,1.37,0,1,0,1.36,1.37A1.36,1.36,0,0,0,163.38,273.72Z" style="opacity:0.2"></path><path d="M156.57,280.53a1.36,1.36,0,1,0,1.36,1.36A1.36,1.36,0,0,0,156.57,280.53Z" style="opacity:0.2"></path><path d="M156.57,266.92a1.36,1.36,0,1,0,1.36,1.36A1.36,1.36,0,0,0,156.57,266.92Z" style="opacity:0.2"></path><path d="M168.82,268.28a1.37,1.37,0,1,0,1.37-1.36A1.36,1.36,0,0,0,168.82,268.28Z" style="opacity:0.2"></path><path d="M151.13,288.7a1.18,1.18,0,0,0,0-.27,1.4,1.4,0,0,0-.57-.86,1.42,1.42,0,0,0-.77-.23v1.36Z" style="opacity:0.2"></path><path d="M150.53,274a1.35,1.35,0,0,0-.77-.24v2.73a1.42,1.42,0,0,0,.77-.23,1.36,1.36,0,0,0,0-2.26Z" style="opacity:0.2"></path><path d="M175.74,262a1.39,1.39,0,0,0,.37.5c.11-.34.23-.68.35-1h-.83A1.32,1.32,0,0,0,175.74,262Z" style="opacity:0.2"></path><path d="M162.12,262a1.36,1.36,0,0,0,1.26.83,1.35,1.35,0,0,0,1.25-.83,1.32,1.32,0,0,0,.11-.53H162A1.51,1.51,0,0,0,162.12,262Z" style="opacity:0.2"></path><path d="M149.76,262.83a1.34,1.34,0,0,0,.77-.23,1.43,1.43,0,0,0,.49-.6,1.32,1.32,0,0,0,.11-.53h-1.37Z" style="opacity:0.2"></path><path d="M156.57,294.15a1.36,1.36,0,1,0,0,2.72,1.33,1.33,0,0,0,.45-.08c.21-.14.42-.31.63-.46a1.36,1.36,0,0,0-1.08-2.18Z" style="opacity:0.2"></path><path d="M162,288.7a1.36,1.36,0,0,0,1.36,1.36,1.27,1.27,0,0,0,.34-.05c.31-.42.62-.86.93-1.31Z" style="opacity:0.2"></path><path d="M149.76,290.06a1.34,1.34,0,0,0,.77-.23,1.37,1.37,0,0,0,.6-1.13h-1.37Z" style="opacity:0.2"></path><path d="M149.76,260.11a1.4,1.4,0,0,0-.53.11,1.28,1.28,0,0,0-.59.49,1.34,1.34,0,0,0-.24.76h1.36Z" style="opacity:0.2"></path><path d="M149.76,287.34a1.4,1.4,0,0,0-.53.11,1.36,1.36,0,0,0-.8,1,1.18,1.18,0,0,0,0,.27h1.36Z" style="opacity:0.2"></path><path d="M149.23,273.83a1.36,1.36,0,0,0,0,2.51,1.4,1.4,0,0,0,.53.11v-2.73A1.4,1.4,0,0,0,149.23,273.83Z" style="opacity:0.2"></path><path d="M143,280.53a1.36,1.36,0,1,0,1.36,1.36A1.36,1.36,0,0,0,143,280.53Z" style="opacity:0.2"></path><path d="M141.6,268.28a1.36,1.36,0,1,0,1.36-1.36A1.36,1.36,0,0,0,141.6,268.28Z" style="opacity:0.2"></path><path d="M148.4,261.47a1.32,1.32,0,0,0,.11.53,1.34,1.34,0,0,0,.72.72,1.4,1.4,0,0,0,.53.11v-1.36Z" style="opacity:0.2"></path><path d="M143,294.15a1.33,1.33,0,0,0-.71.2,21.31,21.31,0,0,0,2,1.66,1.44,1.44,0,0,0,.1-.5A1.36,1.36,0,0,0,143,294.15Z" style="opacity:0.2"></path><path d="M149.76,288.7H148.4a1.36,1.36,0,0,0,.83,1.25,1.4,1.4,0,0,0,.53.11Z" style="opacity:0.2"></path></g></g><path d="M171.6,275.22c2-5.25,6.13-17.47,10.23-29.71-12.71,1.41-17.79-5.59-19.7-9.89-7.49,10.48-15.28,21.21-18.67,26.47a35.51,35.51,0,0,0-4.88,26.64c.75,3.76,7.88,11.26,14.63,9.76S167.1,286.86,171.6,275.22Z" style="fill:none;stroke:#263238;stroke-linecap:round;stroke-miterlimit:10;stroke-width:0.9454538226127625px"></path><path d="M251.23,275.07c-5.6,0-8.17-6.71-11.34-16.7-3.76-11.83-2.73-28.9-2.68-29.62a.94.94,0,0,1,1-.89,1,1,0,0,1,.88,1c0,.17-1.05,17.44,2.6,28.92,4,12.53,6.31,16,10.46,15.31,4.87-.77,13.26-10,15.5-15.91s6.46-17.11,8.14-26.88a.94.94,0,0,1,1.09-.77,1,1,0,0,1,.77,1.09c-1.71,10-5.95,21.19-8.23,27.23-2.48,6.56-11.32,16.22-17,17.11A8.72,8.72,0,0,1,251.23,275.07Z" style="fill:#fff;stroke:#263238;stroke-miterlimit:10;stroke-width:0.9454538226127625px"></path><path d="M241.48,251.14a2.92,2.92,0,1,1-2.91-2.91A2.91,2.91,0,0,1,241.48,251.14Z" style="fill:#fff;stroke:#263238;stroke-miterlimit:10;stroke-width:0.9454538226127625px"></path><path d="M274.5,248.51a2.92,2.92,0,1,1-2.92-2.92A2.91,2.91,0,0,1,274.5,248.51Z" style="fill:#fff;stroke:#263238;stroke-miterlimit:10;stroke-width:0.9454538226127625px"></path><circle cx="240.79" cy="258.08" r="4.3" style="fill:#FB7185;stroke:#263238;stroke-miterlimit:10;stroke-width:0.9454538226127625px"></circle><path d="M272.83,257.52a4.3,4.3,0,1,1-4.3-4.3A4.3,4.3,0,0,1,272.83,257.52Z" style="fill:#FB7185;stroke:#263238;stroke-miterlimit:10;stroke-width:0.9454538226127625px"></path><circle cx="243.84" cy="267.24" r="4.3" style="fill:#fff;stroke:#263238;stroke-miterlimit:10;stroke-width:0.9454538226127625px"></circle><circle cx="260.21" cy="266.96" r="4.3" style="fill:#fff;stroke:#263238;stroke-miterlimit:10;stroke-width:0.9454538226127625px"></circle><circle cx="251.88" cy="273.06" r="4.3" style="fill:#FB7185;stroke:#263238;stroke-miterlimit:10;stroke-width:0.9454538226127625px"></circle><path d="M354,314.31s-43.19-28.58-46.57-33.46-9.82-17.56-10.94-19.06c-.37-.49-2.25-1.6-5.72-.15l-5.18,3c2.25,7.12,3.75,13.42,8.12,19.54,4.66,6.53,6.53,12.65,15.22,14.65,0,0,16.5,23,20.1,27.52s15.52,22.6,22.72,23.5,13.51-3.6,15.76-12.15S361.21,318.36,354,314.31Z" style="fill:#969696;stroke:#263238;stroke-linecap:round;stroke-miterlimit:10;stroke-width:0.9454538226127625px"></path><path d="M277.4,251.86l-.19,0L276,246.52l-7.36,1.65,1.2,5.38-.19,0-5.23,10.18a5.84,5.84,0,0,0-.5,3.94l8.51,37.93a4.15,4.15,0,0,0,4.95,3.14L294,305.05a4.13,4.13,0,0,0,3.13-4.94l-8.42-37.93a5.85,5.85,0,0,0-2.17-3.38Z" style="fill:#263238;stroke:#263238;stroke-linecap:round;stroke-miterlimit:10;stroke-width:0.9454538226127625px"></path><line x1="269.84" y1="253.55" x2="277.21" y2="251.9" style="fill:none;stroke:#263238;stroke-linecap:round;stroke-miterlimit:10;stroke-width:0.9454538226127625px"></line><line x1="269.26" y1="250.96" x2="276.63" y2="249.31" style="fill:none;stroke:#858585;stroke-linecap:round;stroke-miterlimit:10;stroke-width:0.9454538226127625px"></line><path d="M290.77,261.64s-10.44,6-14.12,7.21-1.52,3.6-.5,4.21,8.7-1,13-2.21,5.28-2.41,5.28-2.41l2,3.07" style="fill:#969696;stroke:#263238;stroke-linecap:round;stroke-miterlimit:10;stroke-width:0.9454538226127625px"></path><path d="M300.75,272.73s-3.88-5.31-5.31-5.71-7.56,3.47-11.44,6.73-7.85,4-7.85,5.68.8,1.91,3.45,1.91,14.09-5.92,14.09-5.92l4.41,6.18" style="fill:#969696;stroke:#263238;stroke-linecap:round;stroke-miterlimit:10;stroke-width:0.9454538226127625px"></path><path d="M300.79,279.31s-2.86-2.66-4.5-2.66-11.23,6.54-14.29,7.76-1.84,3.27-.2,4.09,5.1.81,7.55-.41,8.78-4.29,8.78-4.29" style="fill:#969696;stroke:#263238;stroke-linecap:round;stroke-miterlimit:10;stroke-width:0.9454538226127625px"></path><path d="M303.69,285.6s-2.25-2.45-3.88-2.45-6.74,4.9-9.19,6.74-5.11,3.06-5.31,4.08,2,2.25,4.08,2,8-3.88,8.58-4.29a19.27,19.27,0,0,1,2-1,4.34,4.34,0,0,0,2.25,1.84" style="fill:#969696;stroke:#263238;stroke-linecap:round;stroke-miterlimit:10;stroke-width:0.9454538226127625px"></path><path d="M354,314.31s-7.53-5-16.56-11.15c-1.07,5.12-4.19,12.16-12.88,17.28,2,2.67,3.6,4.85,4.47,5.94,3.6,4.51,15.52,22.6,22.72,23.5s13.51-3.6,15.76-12.15S361.21,318.36,354,314.31Z" style="fill:#FB7185"></path><g style="clip-path:url(#freepik--clip-path-5--inject-5)"><g style="opacity:0.5"><path d="M355.11,315.17a1.36,1.36,0,0,0-2.26,0,1.34,1.34,0,0,0-.23.76h2.72A1.34,1.34,0,0,0,355.11,315.17Z" style="opacity:0.2"></path><path d="M347.17,310.48a1.41,1.41,0,0,0,.76-.22l-2.09-1.41a1.24,1.24,0,0,0,0,.27A1.36,1.36,0,0,0,347.17,310.48Z" style="opacity:0.2"></path><path d="M340.37,315.93h1.36a1.34,1.34,0,0,0-.24-.76,1.27,1.27,0,0,0-.36-.37,1.34,1.34,0,0,0-.76-.23Z" style="opacity:0.2"></path><path d="M354.94,342.2l-.2-.17a1.39,1.39,0,0,0-1.52,0l-.2.17a1.26,1.26,0,0,0-.37.69,1.18,1.18,0,0,0,0,.27h2.72a1.18,1.18,0,0,0,0-.27A1.26,1.26,0,0,0,354.94,342.2Z" style="opacity:0.2"></path><path d="M367.32,330.88a18.71,18.71,0,0,0-.75-2.22,1.33,1.33,0,0,0-.34.89A1.37,1.37,0,0,0,367.32,330.88Z" style="opacity:0.2"></path><path d="M354,330.91a1.37,1.37,0,1,0-1.36-1.36A1.36,1.36,0,0,0,354,330.91Z" style="opacity:0.2"></path><path d="M347.17,335a1.36,1.36,0,1,0,1.36,1.36A1.36,1.36,0,0,0,347.17,335Z" style="opacity:0.2"></path><path d="M362.15,336.35a1.36,1.36,0,1,0-1.36,1.36A1.36,1.36,0,0,0,362.15,336.35Z" style="opacity:0.2"></path><path d="M347.17,321.38a1.36,1.36,0,1,0,1.36,1.36A1.36,1.36,0,0,0,347.17,321.38Z" style="opacity:0.2"></path><path d="M360.79,321.38a1.36,1.36,0,1,0,1.36,1.36A1.36,1.36,0,0,0,360.79,321.38Z" style="opacity:0.2"></path><path d="M341.13,330.67a1.37,1.37,0,0,0-.76-2.49v2.73A1.34,1.34,0,0,0,341.13,330.67Z" style="opacity:0.2"></path><path d="M354,317.29a1.37,1.37,0,0,0,1.26-.83,1.51,1.51,0,0,0,.1-.53h-2.72a1.32,1.32,0,0,0,.11.53A1.35,1.35,0,0,0,354,317.29Z" style="opacity:0.2"></path><path d="M340.37,317.29a1.34,1.34,0,0,0,.76-.23,1.43,1.43,0,0,0,.49-.6,1.32,1.32,0,0,0,.11-.53h-1.36Z" style="opacity:0.2"></path><path d="M354,344.52a1.36,1.36,0,0,0,1.36-1.36h-2.72A1.36,1.36,0,0,0,354,344.52Z" style="opacity:0.2"></path><path d="M340.37,314.57a1.32,1.32,0,0,0-.53.11,1.26,1.26,0,0,0-.6.49,1.34,1.34,0,0,0-.24.76h1.37Z" style="opacity:0.2"></path><path d="M340.37,328.18a1.32,1.32,0,0,0-.53.11,1.36,1.36,0,0,0,0,2.51,1.32,1.32,0,0,0,.53.11Z" style="opacity:0.2"></path><path d="M333.56,324.1a1.36,1.36,0,1,0-1.36-1.36A1.36,1.36,0,0,0,333.56,324.1Z" style="opacity:0.2"></path><path d="M339,315.93a1.38,1.38,0,0,0,1.37,1.36v-1.36Z" style="opacity:0.2"></path></g></g><path d="M354,314.31s-7.53-5-16.56-11.15c-1.07,5.12-4.19,12.16-12.88,17.28,2,2.67,3.6,4.85,4.47,5.94,3.6,4.51,15.52,22.6,22.72,23.5s13.51-3.6,15.76-12.15S361.21,318.36,354,314.31Z" style="fill:none;stroke:#263238;stroke-linecap:round;stroke-miterlimit:10;stroke-width:0.9454538226127625px"></path><line x1="80.75" y1="444.69" x2="431.51" y2="444.69" style="fill:#263238;stroke:#263238;stroke-linecap:round;stroke-miterlimit:10;stroke-width:0.9454538226127625px"></line></g></svg>